<svg width="20" height="20" viewBox="0 0 20 20" fill="none" xmlns="http://www.w3.org/2000/svg">
<g clip-path="url(#clip0_338_938)">
<path d="M14 0H6C2.68629 0 0 2.68629 0 6V14C0 17.3137 2.68629 20 6 20H14C17.3137 20 20 17.3137 20 14V6C20 2.68629 17.3137 0 14 0Z" fill="#1B1B1B"/>
<path d="M14 0H6C2.68629 0 0 2.68629 0 6V14C0 17.3137 2.68629 20 6 20H14C17.3137 20 20 17.3137 20 14V6C20 2.68629 17.3137 0 14 0Z" fill="#00A3FF" fill-opacity="0.2"/>
<g opacity="0.9">
<path d="M11.0349 11.0144L10.3585 12.785C10.3401 12.8342 10.3401 12.8878 10.3585 12.9371L11.5221 15.9836L12.868 15.2417L11.2527 11.0144C11.216 10.9171 11.0715 10.9171 11.0349 11.0144Z" fill="#00A3FF"/>
<path d="M12.3913 8.0369C12.3546 7.93952 12.2102 7.93952 12.1735 8.0369L11.4971 9.80749C11.4788 9.85666 11.4788 9.91032 11.4971 9.95957L13.4036 14.9472L14.7495 14.2053L12.3913 8.0369Z" fill="#00A3FF"/>
<path d="M10.0003 4.15968C10.0335 4.15968 10.0668 4.16843 10.0965 4.18375L15.2291 7.01245C15.2887 7.04529 15.3253 7.10656 15.3253 7.17113V12.8274C15.3253 12.8931 15.2887 12.9532 15.2291 12.9861L10.0965 15.8148C10.0678 15.8312 10.0335 15.8389 10.0003 15.8389C9.967 15.8389 9.93375 15.8302 9.90392 15.8148L4.77141 12.9883C4.7118 12.9555 4.67511 12.8942 4.67511 12.8297V7.17222C4.67511 7.10656 4.7118 7.04638 4.77141 7.01355L9.90392 4.18485C9.93375 4.16843 9.967 4.15968 10.0003 4.15968ZM10.0003 3.3335C9.81792 3.3335 9.6345 3.37836 9.47059 3.46919L4.33921 6.2968C4.01134 6.47735 3.80957 6.81111 3.80957 7.17222V12.8286C3.80957 13.1897 4.01134 13.5234 4.33921 13.704L9.47175 16.5327C9.63567 16.6224 9.81792 16.6683 10.0014 16.6683C10.1837 16.6683 10.3671 16.6235 10.531 16.5327L15.6636 13.704C15.9914 13.5234 16.1932 13.1897 16.1932 12.8286V7.17222C16.1932 6.81111 15.9914 6.47735 15.6636 6.2968L10.5299 3.46919C10.3659 3.37836 10.1825 3.3335 10.0003 3.3335Z" fill="#00A3FF"/>
<path d="M9.56801 6.76758H8.26682C8.16938 6.76758 8.08225 6.82557 8.04901 6.91311L5.25977 14.2119L6.60567 14.9538L9.67692 6.91639C9.70559 6.84417 9.64942 6.76758 9.56801 6.76758Z" fill="#00A3FF"/>
<path d="M11.8453 6.76758H10.5442C10.4468 6.76758 10.3596 6.82557 10.3263 6.91311L7.1416 15.2472L8.4875 15.9891L11.9543 6.91639C11.9818 6.84417 11.9256 6.76758 11.8453 6.76758Z" fill="#00A3FF"/>
</g>
</g>
<defs>
<clipPath id="clip0_338_938">
<rect width="20" height="20" fill="white"/>
</clipPath>
</defs>
</svg>
