<svg width="20" height="20" viewBox="0 0 20 20" fill="none" xmlns="http://www.w3.org/2000/svg">
<g clip-path="url(#clip0_338_974)">
<path d="M14 0H6C2.68629 0 0 2.68629 0 6V14C0 17.3137 2.68629 20 6 20H14C17.3137 20 20 17.3137 20 14V6C20 2.68629 17.3137 0 14 0Z" fill="#1B1B1B"/>
<path d="M14 0H6C2.68629 0 0 2.68629 0 6V14C0 17.3137 2.68629 20 6 20H14C17.3137 20 20 17.3137 20 14V6C20 2.68629 17.3137 0 14 0Z" fill="#E84142" fill-opacity="0.2"/>
<g clip-path="url(#clip1_338_974)">
<mask id="mask0_338_974" style="mask-type:luminance" maskUnits="userSpaceOnUse" x="0" y="0" width="20" height="20">
<path d="M13.3333 0H6.66667C2.98477 0 0 2.98477 0 6.66667V13.3333C0 17.0152 2.98477 20 6.66667 20H13.3333C17.0152 20 20 17.0152 20 13.3333V6.66667C20 2.98477 17.0152 0 13.3333 0Z" fill="white"/>
</mask>
<g mask="url(#mask0_338_974)">
<path fill-rule="evenodd" clip-rule="evenodd" d="M6.9448 15.0572H4.88158C4.44803 15.0572 4.23388 15.0572 4.1033 14.9736C3.96226 14.8822 3.87608 14.7307 3.86564 14.5635C3.85779 14.4095 3.96488 14.2214 4.17904 13.8453L9.27341 4.86578C9.49016 4.48447 9.59983 4.29382 9.73825 4.2233C9.88716 4.14757 10.0647 4.14757 10.2136 4.2233C10.352 4.29382 10.4617 4.48447 10.6785 4.86578L11.7258 6.69396L11.7312 6.7033C11.9652 7.11236 12.084 7.3198 12.1358 7.53753C12.1932 7.7752 12.1932 8.02591 12.1358 8.26359C12.0836 8.48292 11.9661 8.69192 11.7284 9.10717L9.05241 13.8375L9.0455 13.8496C8.80983 14.262 8.69041 14.4711 8.52491 14.6288C8.34466 14.8012 8.1279 14.9265 7.89024 14.9971C7.67347 15.0572 7.43059 15.0572 6.9448 15.0572ZM12.1552 15.0572H15.1115C15.5477 15.0572 15.7671 15.0572 15.8977 14.9711C16.0387 14.8797 16.1275 14.7255 16.1354 14.5584C16.1429 14.4093 16.0382 14.2286 15.8329 13.8743C15.8258 13.8623 15.8187 13.85 15.8116 13.8375L14.3307 11.3042L14.3138 11.2757C14.1057 10.9238 14.0007 10.7461 13.8657 10.6774C13.717 10.6017 13.5419 10.6017 13.3931 10.6774C13.2572 10.7479 13.1476 10.9333 12.9308 11.3068L11.4552 13.8402L11.4502 13.8488C11.2342 14.2218 11.1262 14.4081 11.134 14.561C11.1444 14.7282 11.2306 14.8822 11.3717 14.9736C11.4996 15.0572 11.719 15.0572 12.1552 15.0572Z" fill="#E84142"/>
</g>
</g>
</g>
<defs>
<clipPath id="clip0_338_974">
<rect width="20" height="20" fill="white"/>
</clipPath>
<clipPath id="clip1_338_974">
<rect width="20" height="20" fill="white"/>
</clipPath>
</defs>
</svg>
