<svg width="20" height="20" viewBox="0 0 20 20" fill="none" xmlns="http://www.w3.org/2000/svg">
<g clip-path="url(#clip0_338_963)">
<path d="M14 0H6C2.68629 0 0 2.68629 0 6V14C0 17.3137 2.68629 20 6 20H14C17.3137 20 20 17.3137 20 14V6C20 2.68629 17.3137 0 14 0Z" fill="#1B1B1B"/>
<path d="M14 0H6C2.68629 0 0 2.68629 0 6V14C0 17.3137 2.68629 20 6 20H14C17.3137 20 20 17.3137 20 14V6C20 2.68629 17.3137 0 14 0Z" fill="#0052FF" fill-opacity="0.2"/>
<path fill-rule="evenodd" clip-rule="evenodd" d="M16.6663 10.0002C16.6663 13.6821 13.6763 16.6668 9.98801 16.6668C6.48878 16.6668 3.61811 13.9802 3.33301 10.5606H12.1602V9.43975H3.33301C3.61811 6.0201 6.48878 3.3335 9.98801 3.3335C13.6763 3.3335 16.6663 6.31825 16.6663 10.0002Z" fill="#0052FF"/>
</g>
<defs>
<clipPath id="clip0_338_963">
<rect width="20" height="20" fill="white"/>
</clipPath>
</defs>
</svg>
