<svg width="20" height="20" viewBox="0 0 20 20" fill="none" xmlns="http://www.w3.org/2000/svg">
<g clip-path="url(#clip0_338_991)">
<path d="M14 0H6C2.68629 0 0 2.68629 0 6V14C0 17.3137 2.68629 20 6 20H14C17.3137 20 20 17.3137 20 14V6C20 2.68629 17.3137 0 14 0Z" fill="#1B1B1B"/>
<path d="M14 0H6C2.68629 0 0 2.68629 0 6V14C0 17.3137 2.68629 20 6 20H14C17.3137 20 20 17.3137 20 14V6C20 2.68629 17.3137 0 14 0Z" fill="#FCFC03" fill-opacity="0.12"/>
<path d="M15.7767 8.90471L13.7325 9.92331L13.7185 9.95121L15.1069 10.9698L14.3674 13.2582L12.2953 14.2838L13.5372 10.4675H9.1139L9.5395 9.14191H13.9628L14.5488 7.32796H3.51855L5.6883 5.71631H15.0721L16.4813 6.74191L15.7767 8.90471Z" fill="#FCFC03"/>
<path d="M7.91433 8.66738L6.63758 12.6441H12.8292L12.2957 14.2836H4.37012L6.49803 7.60693L7.91433 8.66738Z" fill="#FCFC03"/>
</g>
<defs>
<clipPath id="clip0_338_991">
<rect width="20" height="20" fill="white"/>
</clipPath>
</defs>
</svg>
