<svg width="20" height="20" viewBox="0 0 20 20" fill="none" xmlns="http://www.w3.org/2000/svg">
<g clip-path="url(#clip0_338_985)">
<path d="M14 0H6C2.68629 0 0 2.68629 0 6V14C0 17.3137 2.68629 20 6 20H14C17.3137 20 20 17.3137 20 14V6C20 2.68629 17.3137 0 14 0Z" fill="#1B1B1B"/>
<path d="M14 0H6C2.68629 0 0 2.68629 0 6V14C0 17.3137 2.68629 20 6 20H14C17.3137 20 20 17.3137 20 14V6C20 2.68629 17.3137 0 14 0Z" fill="#FCFF52" fill-opacity="0.2"/>
<path d="M14.9867 4.96094H5.0127V14.9349H14.9867V11.4532H13.3304C12.7601 12.724 11.4763 13.6068 10.0075 13.6068C7.98145 13.6068 6.34083 11.9505 6.34083 9.94009C6.33822 7.9297 7.98145 6.28907 10.0075 6.28907C11.5049 6.28907 12.7888 7.20052 13.359 8.5H14.9867V4.96094Z" fill="#FCFF52"/>
</g>
<defs>
<clipPath id="clip0_338_985">
<rect width="20" height="20" fill="white"/>
</clipPath>
</defs>
</svg>
