<svg width="20" height="20" viewBox="0 0 20 20" fill="none" xmlns="http://www.w3.org/2000/svg">
<g clip-path="url(#clip0_338_930)">
<path d="M14 0H6C2.68629 0 0 2.68629 0 6V14C0 17.3137 2.68629 20 6 20H14C17.3137 20 20 17.3137 20 14V6C20 2.68629 17.3137 0 14 0Z" fill="#1B1B1B"/>
<path d="M14 0H6C2.68629 0 0 2.68629 0 6V14C0 17.3137 2.68629 20 6 20H14C17.3137 20 20 17.3137 20 14V6C20 2.68629 17.3137 0 14 0Z" fill="#6B8AFF" fill-opacity="0.2"/>
<path d="M9.56776 3.57552L5.90563 9.59683C5.76063 9.83508 5.83972 10.1439 6.08086 10.2852L9.74301 12.4304C9.90117 12.5234 10.0982 12.5234 10.2563 12.4304L13.9185 10.2852C14.1596 10.1439 14.2388 9.83508 14.0938 9.59683L10.4323 3.57552C10.2362 3.25282 9.76392 3.25282 9.56776 3.57552Z" fill="#6B8AFF"/>
<path d="M13.1582 12.5084C13.1582 12.4991 13.1567 12.4906 13.1559 12.4821C13.1543 12.4736 13.1527 12.4651 13.1512 12.4566C13.1489 12.4465 13.1458 12.4373 13.1427 12.4272C13.1404 12.4195 13.1381 12.4125 13.1342 12.4056C13.1295 12.3948 13.1233 12.3839 13.1172 12.3738C13.114 12.3684 13.1109 12.3623 13.1071 12.3568C13.0963 12.3414 13.0846 12.3259 13.0707 12.3128C13.0567 12.2997 13.042 12.2873 13.0265 12.2764C13.021 12.2726 13.0156 12.2703 13.0094 12.2664C12.9993 12.2602 12.9885 12.254 12.9777 12.2493C12.9707 12.2463 12.9629 12.2439 12.9552 12.2408C12.9458 12.2378 12.9358 12.2347 12.9258 12.2323C12.9172 12.23 12.9087 12.2285 12.9002 12.2278C12.8916 12.2262 12.8831 12.2254 12.8738 12.2254C12.8637 12.2254 12.8544 12.2247 12.8443 12.2254C12.8373 12.2254 12.8304 12.2269 12.8227 12.2278C12.8118 12.2293 12.8009 12.23 12.7901 12.2323C12.787 12.2323 12.7839 12.2347 12.7808 12.2354C12.7475 12.2439 12.7157 12.2571 12.6862 12.2764L10.2761 13.6968C10.1056 13.7973 9.89475 13.7973 9.72425 13.6968L7.31411 12.2764C7.28466 12.2571 7.25288 12.2439 7.21956 12.2354C7.21646 12.2347 7.21336 12.2332 7.21026 12.2323C7.19941 12.23 7.18856 12.2293 7.17771 12.2278C7.17073 12.2269 7.16376 12.2262 7.15601 12.2254C7.14593 12.2254 7.13663 12.2254 7.12656 12.2254C7.11803 12.2254 7.10874 12.2269 7.10022 12.2278C7.09169 12.2293 7.08317 12.2308 7.07464 12.2323C7.06457 12.2347 7.05527 12.2378 7.04519 12.2408C7.03744 12.2432 7.03047 12.2463 7.02272 12.2493C7.01187 12.254 7.00102 12.2602 6.99094 12.2664C6.98552 12.2695 6.97932 12.2726 6.97389 12.2764C6.95839 12.2873 6.94289 12.2988 6.92972 12.3128C6.91654 12.3267 6.90414 12.3414 6.89329 12.3568C6.88942 12.3623 6.88709 12.3677 6.88322 12.3738C6.87702 12.3847 6.87082 12.3948 6.86617 12.4056C6.86307 12.4125 6.86074 12.4203 6.85764 12.4272C6.85454 12.4373 6.85144 12.4465 6.84912 12.4566C6.84679 12.4651 6.84524 12.4736 6.84447 12.4821C6.84292 12.4906 6.84214 12.4999 6.84214 12.5084C6.84214 12.5177 6.84137 12.5278 6.84214 12.537C6.84214 12.5448 6.84369 12.5517 6.84447 12.5594C6.84602 12.5703 6.84679 12.5811 6.84912 12.5912C6.84989 12.5958 6.85144 12.5997 6.85299 12.6035C6.86229 12.6391 6.87779 12.6723 6.90027 12.7033L9.55692 16.4387C9.77308 16.7425 10.2257 16.7425 10.4419 16.4387L13.0985 12.7033C13.121 12.6723 13.1365 12.6391 13.1458 12.6035C13.1466 12.5997 13.1489 12.595 13.1497 12.5912C13.152 12.5803 13.1528 12.5703 13.1543 12.5594C13.1551 12.5517 13.1559 12.5448 13.1567 12.537C13.1567 12.5278 13.1567 12.5177 13.1567 12.5084H13.1582Z" fill="#6B8AFF"/>
</g>
<defs>
<clipPath id="clip0_338_930">
<rect width="20" height="20" fill="white"/>
</clipPath>
</defs>
</svg>
