<svg width="20" height="20" viewBox="0 0 20 20" fill="none" xmlns="http://www.w3.org/2000/svg">
<g clip-path="url(#clip0_338_949)">
<path d="M14 0H6C2.68629 0 0 2.68629 0 6V14C0 17.3137 2.68629 20 6 20H14C17.3137 20 20 17.3137 20 14V6C20 2.68629 17.3137 0 14 0Z" fill="#1B1B1B"/>
<path d="M14 0H6C2.68629 0 0 2.68629 0 6V14C0 17.3137 2.68629 20 6 20H14C17.3137 20 20 17.3137 20 14V6C20 2.68629 17.3137 0 14 0Z" fill="#FF0420" fill-opacity="0.2"/>
<path d="M6.01181 13.3333C5.29199 13.3333 4.70261 13.1605 4.24367 12.8151C3.78956 12.4648 3.5625 11.9614 3.5625 11.315C3.5625 11.1768 3.57699 11.0139 3.60598 10.8166C3.68327 10.3724 3.79439 9.8395 3.93932 9.21284C4.34995 7.51527 5.41277 6.6665 7.12293 6.6665C7.58671 6.6665 8.007 6.74546 8.37417 6.9083C8.74133 7.06128 9.03117 7.29815 9.24375 7.61396C9.45633 7.92485 9.56258 8.29495 9.56258 8.72425C9.56258 8.85259 9.54808 9.01542 9.51908 9.21284C9.42733 9.76059 9.321 10.2984 9.19058 10.8166C8.978 11.6604 8.61567 12.297 8.09396 12.7164C7.57704 13.1309 6.88138 13.3333 6.01181 13.3333ZM6.14224 12.0009C6.48041 12.0009 6.76544 11.8973 7.00216 11.6949C7.24371 11.4926 7.41762 11.1818 7.51907 10.7573C7.65917 10.1751 7.76545 9.67175 7.83792 9.2375C7.86208 9.10917 7.87657 8.97592 7.87657 8.83775C7.87657 8.27521 7.59153 7.99393 7.01665 7.99393C6.67848 7.99393 6.38862 8.09756 6.14707 8.29988C5.91036 8.50217 5.74128 8.81309 5.63983 9.2375C5.52871 9.652 5.42242 10.1553 5.31132 10.7573C5.28716 10.8808 5.27267 11.009 5.27267 11.1472C5.26783 11.7196 5.56253 12.0009 6.14224 12.0009Z" fill="#FF0420"/>
<path d="M9.97266 13.3333C9.89966 13.3333 9.8475 13.3129 9.80575 13.2673C9.77441 13.2166 9.764 13.1608 9.77441 13.0948L11.1257 6.90496C11.1362 6.83394 11.1727 6.77812 11.2353 6.73246C11.2927 6.6868 11.3553 6.6665 11.4232 6.6665H14.0267C14.752 6.6665 15.3312 6.81364 15.7694 7.10284C16.2129 7.3971 16.4372 7.81822 16.4372 8.37125C16.4372 8.5285 16.4164 8.69592 16.3798 8.86842C16.2181 9.59909 15.8894 10.1368 15.3885 10.4869C14.8981 10.837 14.225 11.0095 13.3693 11.0095H12.0492L11.6006 13.0948C11.5849 13.1658 11.5536 13.2217 11.491 13.2673C11.4336 13.3129 11.371 13.3333 11.3032 13.3333H9.97266ZM13.4372 9.69542C13.7137 9.69542 13.9485 9.62442 14.152 9.47725C14.3607 9.33017 14.4963 9.12217 14.5642 8.84817C14.585 8.74159 14.5954 8.64525 14.5954 8.564C14.5954 8.38142 14.5381 8.23933 14.4285 8.14293C14.3189 8.04145 14.1258 7.99072 13.8597 7.99072H12.6858L12.3154 9.69542H13.4372Z" fill="#FF0420"/>
</g>
<defs>
<clipPath id="clip0_338_949">
<rect width="20" height="20" fill="white"/>
</clipPath>
</defs>
</svg>
