<svg width="20" height="20" viewBox="0 0 20 20" fill="none" xmlns="http://www.w3.org/2000/svg">
<g clip-path="url(#clip0_338_956)">
<path d="M14 0H6C2.68629 0 0 2.68629 0 6V14C0 17.3137 2.68629 20 6 20H14C17.3137 20 20 17.3137 20 14V6C20 2.68629 17.3137 0 14 0Z" fill="#1B1B1B"/>
<path d="M14 0H6C2.68629 0 0 2.68629 0 6V14C0 17.3137 2.68629 20 6 20H14C17.3137 20 20 17.3137 20 14V6C20 2.68629 17.3137 0 14 0Z" fill="#9558FF" fill-opacity="0.2"/>
<path d="M13.2324 12.4365L16.3953 10.5919C16.5628 10.4945 16.6663 10.3126 16.6663 10.117V6.42775C16.6663 6.23219 16.562 6.0502 16.3953 5.95282L13.2324 4.10819C13.0649 4.01081 12.8572 4.01081 12.6897 4.10819L9.52676 5.95282C9.35926 6.0502 9.25576 6.23219 9.25576 6.42775V13.0209L7.0379 14.3139L4.82002 13.0209V10.4339L7.0379 9.14077L8.50042 9.9941V8.2588L7.30891 7.56358C7.22673 7.51569 7.13271 7.49015 7.0379 7.49015C6.94308 7.49015 6.84827 7.51569 6.76688 7.56358L3.60402 9.40819C3.43652 9.5056 3.33301 9.6876 3.33301 9.8831V13.5724C3.33301 13.7672 3.43731 13.9499 3.60402 14.0474L6.76688 15.8919C6.93439 15.9894 7.14219 15.9894 7.3097 15.8919L10.4726 14.0474C10.6401 13.9499 10.7436 13.7679 10.7436 13.5724V6.9793L10.7838 6.95615L12.9614 5.68622L15.1793 6.9793V9.56627L12.9614 10.8594L11.5005 10.0077V11.7429L12.6897 12.4365C12.8572 12.5339 13.0649 12.5339 13.2324 12.4365Z" fill="#9558FF"/>
</g>
<defs>
<clipPath id="clip0_338_956">
<rect width="20" height="20" fill="white"/>
</clipPath>
</defs>
</svg>
