<svg viewBox="0 0 269 80" fill="none" xmlns="http://www.w3.org/2000/svg">
<path d="M71.3345 14.7146C71.0723 14.1574 70.4471 13.8575 69.8598 14.0289C67.8557 14.5709 65.7104 14.8456 63.4769 14.8456C57.8957 14.8456 52.4934 13.1466 48.1456 11.7828C45.3493 10.898 42.9292 10.1467 40.9478 9.95767C40.184 9.88708 39.3798 9.83414 38.553 9.83414C32.7827 9.83414 28.651 12.4685 25.9663 17.7648C24.8092 20.8579 24.7436 23.6838 25.9032 26.1467C27.4435 29.4214 30.7282 31.3498 32.5609 31.8464C33.2314 32.0305 33.6272 32.7262 33.4457 33.3943C33.2919 33.9539 32.7852 34.3245 32.2306 34.3245C32.1222 34.3245 32.0088 34.3093 31.8979 34.2791C29.9341 33.7421 25.6764 31.5817 23.6218 27.2181C22.9765 25.8468 22.6236 24.3972 22.5353 22.8923C16.455 27.8357 13.1123 36.0286 13.1123 46.3768C13.1123 52.4615 16.0819 58.5123 21.2598 62.9887C26.6696 67.6624 33.9675 70.2362 41.8125 70.2362C45.1199 70.2362 48.5161 69.7768 51.9061 68.8825C52.4481 68.7388 52.8319 68.258 52.8464 67.6902C52.9497 63.4223 48.0498 58.7436 45.7072 57.0647C45.6619 56.4603 45.7778 55.3858 46.0224 54.327C36.4128 52.6531 28.051 47.8868 25.8326 42.5406C25.5654 41.8997 25.8705 41.1636 26.5158 40.897C27.1561 40.6374 27.8947 40.9367 28.1619 41.5802C30.1837 46.4549 38.9513 50.9698 48.4443 52.1401C51.4095 52.1931 54.6028 53.3501 55.112 53.9476C55.4101 54.293 55.8765 54.4543 56.3277 54.361C56.7789 54.2677 57.1394 53.9375 57.273 53.4989C57.3707 53.1888 57.4898 52.6771 57.5932 52.0998C53.8648 46.0094 48.8785 46.5665 45.561 46.944C44.5199 47.0625 43.7006 47.1557 42.9948 47.058C42.3066 46.9597 41.8276 46.3194 41.9234 45.6363C42.0217 44.9474 42.6494 44.4584 43.3471 44.5617C43.7334 44.6147 44.4796 44.5264 45.2762 44.4433C48.4852 44.0752 54.2026 43.4399 58.65 49.1951C64.5186 47.3246 64.2004 41.7661 64.0794 39.8023L64.0649 39.4973C64.0391 39.0284 63.7548 38.61 63.3263 38.4133C62.1383 37.8713 59.182 35.5042 57.493 33.2128C56.2117 33.5808 54.7295 33.7825 53.2371 33.7825C50.4263 33.7825 47.6181 33.0993 46.2517 31.6624C45.7753 31.1557 45.793 30.3566 46.3022 29.8802C46.8114 29.4037 47.608 29.4214 48.0844 29.9306C49.3297 31.2465 53.648 31.6246 56.5817 30.8557C56.4229 25.7989 51.4473 21.6848 42.5076 19.3883C42.8353 18.9396 43.5034 18.6597 44.9409 18.6597C46.2511 18.6597 47.8796 18.8992 49.7703 19.1664C52.2439 19.5244 55.0515 19.9252 58.0268 19.9252C63.0685 19.9252 67.2784 18.7303 70.8958 16.28C71.4107 15.9372 71.5916 15.2742 71.3345 14.7146Z" fill="url(#paint0_linear_19_259)"/>
<path d="M96.6734 36.3187V40.0306C95.179 40.4403 93.6847 40.609 92.1421 40.609C87.6107 40.609 84.5737 37.4998 84.5737 33.0889C84.5737 28.5576 87.7312 25.5688 92.118 25.5688C93.6365 25.5688 95.2273 25.6893 96.6734 26.1473V29.8591C95.4924 29.2806 93.6365 29.0637 92.3349 29.0637C89.3943 29.0637 88.1892 30.2689 88.1892 33.0648C88.1892 36.0295 89.6113 37.1141 92.359 37.1141C93.5883 37.1141 95.5888 36.9213 96.6734 36.3187ZM107.177 37.2105C109.804 37.2105 111.154 35.5233 111.154 33.0648C111.154 30.4617 109.708 28.9191 107.177 28.9191C104.526 28.9191 103.2 30.6063 103.2 33.0648C103.2 35.6197 104.67 37.2105 107.177 37.2105ZM107.177 40.5608C102.646 40.5608 99.5845 37.4757 99.5845 33.0648C99.5845 28.5093 102.79 25.5688 107.177 25.5688C111.732 25.5688 114.769 28.6299 114.769 33.0648C114.769 37.6444 111.588 40.5608 107.177 40.5608ZM118.428 25.6893H122.043V40.4403H118.428V25.6893ZM135.608 25.6893H139.223V40.4403H135.608L129.823 31.8115V40.4403H126.207V25.6893H129.823L135.608 34.3182V25.6893ZM152.571 37.4516H147.148L146.087 40.4403H142.158L148.063 25.6893H151.679L157.584 40.4403H153.631L152.571 37.4516ZM148.329 34.1012H151.39L149.871 29.8109L148.329 34.1012ZM171.438 36.3187V40.0306C169.944 40.4403 168.449 40.609 166.907 40.609C162.375 40.609 159.338 37.4998 159.338 33.0889C159.338 28.5576 162.496 25.5688 166.882 25.5688C168.401 25.5688 169.992 25.6893 171.438 26.1473V29.8591C170.257 29.2806 168.401 29.0637 167.099 29.0637C164.159 29.0637 162.954 30.2689 162.954 33.0648C162.954 36.0295 164.376 37.1141 167.123 37.1141C168.353 37.1141 170.353 36.9213 171.438 36.3187ZM184.111 37.4516H178.688L177.627 40.4403H173.698L179.603 25.6893H183.219L189.124 40.4403H185.171L184.111 37.4516ZM179.869 34.1012H182.93L181.411 29.8109L179.869 34.1012ZM197.217 40.4403H192.035V25.6893H197.217C201.725 25.6893 204.81 28.6299 204.81 33.0648C204.81 37.6203 201.556 40.4403 197.217 40.4403ZM195.651 29.0396V37.09H197.217C199.772 37.09 201.194 35.4751 201.194 33.0648C201.194 32.5104 201.122 32.0043 200.977 31.4981C200.351 29.7386 198.977 29.0396 197.217 29.0396H195.651ZM208.492 25.6893H219.459V29.0396H212.108V31.4017H218.013V34.752H212.108V37.09H219.459V40.4403H208.492V25.6893ZM226.564 32.3176V40.4403H222.948V25.6893H226.564L231.168 33.8361L235.771 25.6893H239.387V40.4403H235.771V32.3176L232.975 37.1141H229.36L226.564 32.3176ZM247.528 40.4403V34.9689C244.612 34.3182 242.924 31.9079 242.924 29.0155V25.6893H246.54V29.0155C246.54 30.7509 247.576 31.8115 249.312 31.8115C251.095 31.8115 252.084 30.775 252.084 29.0155V25.6893H255.699V29.0155C255.699 31.9561 253.988 34.2941 251.144 34.9689V40.4403H247.528Z" fill="url(#paint1_linear_19_259)"/>
<path d="M113.652 47.356V48.3297H112.445V54.6278H111.471V48.3297H110.143V47.356H113.652ZM116.84 47.3763H117.804V54.6075H116.84V50.784H115.978V54.6075H115.015V47.3763H115.978V49.8306H116.84V47.3763ZM121.702 50.7941H120.303V53.6541H121.712V54.6176H119.339V47.3763H121.712V48.3398H120.303V49.8306H121.702V50.7941ZM127.268 53.0963V54.6075H126.305V47.3763H127.806C128.475 47.3763 129.013 47.924 129.013 48.5933V51.8894C129.013 52.5588 128.475 53.0963 127.806 53.0963H127.268ZM127.268 48.3398V52.1329H127.806C127.948 52.1329 128.049 52.0314 128.049 51.8894V48.5933C128.049 48.4514 127.948 48.3398 127.806 48.3398H127.268ZM131.917 54.6278C131.157 54.6278 130.548 54.0091 130.548 53.2586V48.7049C130.548 47.9544 131.157 47.3459 131.917 47.3459C132.668 47.3459 133.276 47.9544 133.276 48.7049V53.2586C133.276 54.0091 132.668 54.6278 131.917 54.6278ZM131.917 48.3094C131.694 48.3094 131.522 48.4919 131.522 48.7049V53.2586C131.522 53.4817 131.694 53.6541 131.917 53.6541C132.13 53.6541 132.313 53.4817 132.313 53.2586V48.7049C132.313 48.4919 132.13 48.3094 131.917 48.3094ZM138.625 47.3763H139.599L138.655 54.6176H137.651L137.144 50.9868L136.668 54.6176H135.664L134.649 47.3763H135.623L136.15 51.1085L136.637 47.3763H137.611L138.138 51.1085L138.625 47.3763ZM143.497 50.7941H142.098V53.6541H143.507V54.6176H141.134V47.3763H143.507V48.3398H142.098V49.8306H143.497V50.7941ZM147.822 54.6379H146.787L146.229 53.1065H146.006V54.6379H145.043V47.3763H146.554C147.223 47.3763 147.761 47.9138 147.761 48.5832V51.8996C147.761 52.3357 147.538 52.7109 147.193 52.9239L147.822 54.6379ZM146.006 48.3398V52.143H146.554C146.686 52.143 146.797 52.0314 146.797 51.8996V48.5832C146.797 48.4514 146.686 48.3398 146.554 48.3398H146.006ZM153.783 54.6278C153.022 54.6278 152.414 54.0091 152.414 53.2586V48.7049C152.414 47.9544 153.022 47.3459 153.783 47.3459C154.534 47.3459 155.142 47.9544 155.142 48.7049V53.2586C155.142 54.0091 154.534 54.6278 153.783 54.6278ZM153.783 48.3094C153.56 48.3094 153.388 48.4919 153.388 48.7049V53.2586C153.388 53.4817 153.56 53.6541 153.783 53.6541C153.996 53.6541 154.179 53.4817 154.179 53.2586V48.7049C154.179 48.4919 153.996 48.3094 153.783 48.3094ZM159.061 49.8611V50.8144H157.631V54.5973H156.678V47.3763H159.041V48.3398H157.631V49.8611H159.061ZM165.012 54.5973C164.262 54.5973 163.653 53.9888 163.653 53.2383V48.7353C163.653 47.9848 164.262 47.3763 165.012 47.3763C165.763 47.3763 166.371 47.9848 166.371 48.7353V49.141H165.408V48.7353C165.408 48.5223 165.225 48.3398 165.012 48.3398C164.799 48.3398 164.617 48.5223 164.617 48.7353V53.2383C164.617 53.4513 164.799 53.6338 165.012 53.6338C165.225 53.6338 165.408 53.4513 165.408 53.2383V52.5892H166.371V53.2383C166.371 53.9888 165.763 54.5973 165.012 54.5973ZM170.685 54.6379H169.651L169.093 53.1065H168.87V54.6379H167.907V47.3763H169.418C170.087 47.3763 170.625 47.9138 170.625 48.5832V51.8996C170.625 52.3357 170.402 52.7109 170.057 52.9239L170.685 54.6379ZM168.87 48.3398V52.143H169.418C169.55 52.143 169.661 52.0314 169.661 51.8996V48.5832C169.661 48.4514 169.55 48.3398 169.418 48.3398H168.87ZM175.497 47.3763L174.138 51.7779V54.6176H173.154V51.7677L171.907 47.3763H172.921L173.661 49.9828L174.472 47.3763H175.497ZM177.996 53.0963V54.6075H177.032V47.3763H178.533C179.203 47.3763 179.74 47.924 179.74 48.5933V51.8894C179.74 52.5588 179.203 53.0963 178.533 53.0963H177.996ZM177.996 48.3398V52.1329H178.533C178.675 52.1329 178.777 52.0314 178.777 51.8894V48.5933C178.777 48.4514 178.675 48.3398 178.533 48.3398H177.996ZM184.785 47.356V48.3297H183.578V54.6278H182.604V48.3297H181.276V47.356H184.785ZM187.395 54.6278C186.635 54.6278 186.026 54.0091 186.026 53.2586V48.7049C186.026 47.9544 186.635 47.3459 187.395 47.3459C188.146 47.3459 188.754 47.9544 188.754 48.7049V53.2586C188.754 54.0091 188.146 54.6278 187.395 54.6278ZM187.395 48.3094C187.172 48.3094 187 48.4919 187 48.7049V53.2586C187 53.4817 187.172 53.6541 187.395 53.6541C187.608 53.6541 187.791 53.4817 187.791 53.2586V48.7049C187.791 48.4919 187.608 48.3094 187.395 48.3094ZM191.649 54.5973C190.898 54.5973 190.29 53.9888 190.29 53.2383V48.7353C190.29 47.9848 190.898 47.3763 191.649 47.3763C192.399 47.3763 193.008 47.9848 193.008 48.7353V49.141H192.044V48.7353C192.044 48.5223 191.862 48.3398 191.649 48.3398C191.436 48.3398 191.253 48.5223 191.253 48.7353V53.2383C191.253 53.4513 191.436 53.6338 191.649 53.6338C191.862 53.6338 192.044 53.4513 192.044 53.2383V52.5892H193.008V53.2383C193.008 53.9888 192.399 54.5973 191.649 54.5973ZM196.034 54.6379C195.213 54.6379 194.543 53.9685 194.543 53.147V47.3865H195.507V53.147C195.507 53.4412 195.74 53.6846 196.034 53.6846C196.328 53.6846 196.561 53.4412 196.561 53.147V47.3865H197.525V53.147C197.525 53.9685 196.856 54.6379 196.034 54.6379ZM201.839 54.6379H200.805L200.247 53.1065H200.024V54.6379H199.06V47.3763H200.572C201.241 47.3763 201.778 47.9138 201.778 48.5832V51.8996C201.778 52.3357 201.555 52.7109 201.211 52.9239L201.839 54.6379ZM200.024 48.3398V52.143H200.572C200.703 52.143 200.815 52.0314 200.815 51.8996V48.5832C200.815 48.4514 200.703 48.3398 200.572 48.3398H200.024ZM206.154 54.6379H205.119L204.561 53.1065H204.338V54.6379H203.375V47.3763H204.886C205.555 47.3763 206.093 47.9138 206.093 48.5832V51.8996C206.093 52.3357 205.87 52.7109 205.525 52.9239L206.154 54.6379ZM204.338 48.3398V52.143H204.886C205.018 52.143 205.129 52.0314 205.129 51.8996V48.5832C205.129 48.4514 205.018 48.3398 204.886 48.3398H204.338ZM210.052 50.7941H208.653V53.6541H210.062V54.6176H207.689V47.3763H210.062V48.3398H208.653V49.8306H210.052V50.7941ZM213.951 52.9543L213.991 47.3357H214.965L214.904 54.6582H213.393L212.571 48.9889V54.6582H211.598V47.3357H213.17L213.951 52.9543ZM217.859 54.5973C217.109 54.5973 216.5 53.9888 216.5 53.2383V48.7353C216.5 47.9848 217.109 47.3763 217.859 47.3763C218.61 47.3763 219.218 47.9848 219.218 48.7353V49.141H218.255V48.7353C218.255 48.5223 218.072 48.3398 217.859 48.3398C217.646 48.3398 217.464 48.5223 217.464 48.7353V53.2383C217.464 53.4513 217.646 53.6338 217.859 53.6338C218.072 53.6338 218.255 53.4513 218.255 53.2383V52.5892H219.218V53.2383C219.218 53.9888 218.61 54.5973 217.859 54.5973ZM221.717 47.356V54.577H220.754V47.356H221.717ZM225.616 50.7941H224.216V53.6541H225.626V54.6176H223.253V47.3763H225.626V48.3398H224.216V49.8306H225.616V50.7941ZM228.551 54.6785C227.78 54.6785 227.162 54.0497 227.162 53.289V52.1836H228.145V53.289C228.145 53.5121 228.328 53.6947 228.551 53.6947C228.774 53.6947 228.946 53.5121 228.946 53.289V52.3255L227.162 49.8611V48.6035C227.162 47.8327 227.78 47.2039 228.551 47.2039C229.312 47.2039 229.93 47.8327 229.93 48.6035V49.6988H228.946V48.6035C228.946 48.3702 228.774 48.1978 228.551 48.1978C228.328 48.1978 228.145 48.3702 228.145 48.6035V49.5264L229.93 51.9909V53.289C229.93 54.0497 229.312 54.6785 228.551 54.6785Z" fill="url(#paint2_linear_19_259)"/>
<defs>
<linearGradient id="paint0_linear_19_259" x1="13.1123" y1="9.83414" x2="71.4505" y2="9.83414" gradientUnits="userSpaceOnUse">
<stop stop-color="#7d3b14"/>
<stop offset="1" stop-color="#ff6109"/>
</linearGradient>
<linearGradient id="paint1_linear_19_259" x1="84.5737" y1="25.5688" x2="255.699" y2="25.5688" gradientUnits="userSpaceOnUse">
<stop stop-color="#7d3b14"/>
<stop offset="1" stop-color="#ff6109"/>
</linearGradient>
<linearGradient id="paint2_linear_19_259" x1="110.143" y1="47.2039" x2="229.93" y2="47.2039" gradientUnits="userSpaceOnUse">
<stop stop-color="#7d3b14"/>
<stop offset="1" stop-color="#ff6109"/>
</linearGradient>
</defs>
</svg>
