<svg width="25" height="25" viewBox="0 0 25 25" fill="none" xmlns="http://www.w3.org/2000/svg">
<g clip-path="url(#clip0_299_241)">
<path d="M21.4277 0H3.57059C3.07673 0 2.67773 0.398996 2.67773 0.892857V24.1071C2.67773 24.601 3.07673 25 3.57059 25H21.4277C21.9216 25 22.3206 24.601 22.3206 24.1071V0.892857C22.3206 0.398996 21.9216 0 21.4277 0ZM14.1733 2.00893H16.8518V7.86551L15.5544 6.91964L14.1733 7.90737V2.00893ZM20.3117 22.9911H4.68666V2.00893H12.4992V10.293C12.4992 10.385 12.5271 10.4771 12.5829 10.5525C12.6167 10.6003 12.6598 10.641 12.7095 10.6722C12.7592 10.7033 12.8146 10.7243 12.8724 10.7339C12.9303 10.7435 12.9895 10.7415 13.0466 10.7281C13.1037 10.7147 13.1576 10.6901 13.2051 10.6557L15.5432 8.98438L17.8145 10.6417C17.8898 10.6975 17.9819 10.7282 18.0767 10.7282C18.3223 10.7282 18.5232 10.5273 18.5232 10.2818V2.00893H20.3089V22.9911H20.3117Z" fill="white"/>
</g>
<defs>
<clipPath id="clip0_299_241">
<rect width="25" height="25" fill="white"/>
</clipPath>
</defs>
</svg>
