<svg width="25" height="25" viewBox="0 0 25 25" fill="none" xmlns="http://www.w3.org/2000/svg">
<path d="M23.8636 6.25H19.0341V5.75C19.0341 2.575 16.108 0 12.5 0C8.89205 0 5.96591 2.575 5.96591 5.75V6.25H1.13636C0.507812 6.25 0 6.69688 0 7.25V24C0 24.5531 0.507812 25 1.13636 25H23.8636C24.4922 25 25 24.5531 25 24V7.25C25 6.69688 24.4922 6.25 23.8636 6.25ZM8.52273 5.75C8.52273 3.81562 10.3018 2.25 12.5 2.25C14.6982 2.25 16.4773 3.81562 16.4773 5.75V6.25H8.52273V5.75ZM22.4432 22.75H2.55682V8.5H5.96591V11.25C5.96591 11.3875 6.09375 11.5 6.25 11.5H8.23864C8.39489 11.5 8.52273 11.3875 8.52273 11.25V8.5H16.4773V11.25C16.4773 11.3875 16.6051 11.5 16.7614 11.5H18.75C18.9062 11.5 19.0341 11.3875 19.0341 11.25V8.5H22.4432V22.75Z" fill="white"/>
</svg>
