<?xml version="1.0" encoding="UTF-8" standalone="no"?>
<!-- Created with Inkscape (http://www.inkscape.org/) -->

<svg
   version="1.1"
   id="svg2"
   width="1600"
   height="1600"
   viewBox="0 0 1600 1600"
   sodipodi:docname="vector60-6249-01.eps"
   xmlns:inkscape="http://www.inkscape.org/namespaces/inkscape"
   xmlns:sodipodi="http://sodipodi.sourceforge.net/DTD/sodipodi-0.dtd"
   xmlns="http://www.w3.org/2000/svg"
   xmlns:svg="http://www.w3.org/2000/svg">
  <defs
     id="defs6" />
  <sodipodi:namedview
     id="namedview4"
     pagecolor="#ffffff"
     bordercolor="#000000"
     borderopacity="0.25"
     inkscape:showpageshadow="2"
     inkscape:pageopacity="0.0"
     inkscape:pagecheckerboard="0"
     inkscape:deskcolor="#d1d1d1" />
  <g
     id="g8"
     inkscape:groupmode="layer"
     inkscape:label="ink_ext_XXXXXX"
     transform="matrix(1.3333333,0,0,-1.3333333,0,1600)">
    <g
       id="g10"
       transform="scale(0.1)">
      <path
         d="M 10292.4,6144.15 H 3274.1 v 413.47 c 0,272.47 218.52,494.14 487.11,494.14 h 6193.16 c 186.33,0 338.03,-153.81 338.03,-342.87 z m 0,-3176.63 c 0,-272.48 -218.6,-494.14 -487.14,-494.14 H 3761.21 c -268.59,0 -487.11,221.66 -487.11,494.14 V 4873.5 h 7018.3 z M 9954.37,7455.14 H 3761.21 c -487.86,0 -884.74,-402.62 -884.74,-897.52 v -3590.1 c 0,-494.88 396.88,-897.52 884.74,-897.52 h 6044.05 c 487.84,0 884.74,402.64 884.74,897.52 v 3741.37 c 0,411.48 -330,746.25 -735.63,746.25"
         style="fill:#ffffff;fill-opacity:1;fill-rule:nonzero;stroke:none"
         id="path12" />
      <path
         d="m 4848.21,3961.07 c 62.5,22.05 129.7,34.16 199.72,34.16 329.91,0 598.31,-266.5 598.31,-594.07 0,-327.58 -268.4,-594.07 -598.31,-594.07 -70.02,0 -137.22,12.11 -199.72,34.15 162.48,133.29 266.2,334.81 266.2,559.92 0,225.12 -103.72,426.63 -266.2,559.91 z m -465.08,-1286 c 119.66,0 232.59,28.88 332.4,79.68 99.81,-50.8 212.74,-79.68 332.4,-79.68 403.23,0 731.27,325.72 731.27,726.09 0,400.36 -328.04,726.09 -731.27,726.09 -119.66,0 -232.59,-28.87 -332.4,-79.68 -99.81,50.81 -212.74,79.68 -332.4,79.68 -403.22,0 -731.27,-325.73 -731.27,-726.09 0,-400.37 328.05,-726.09 731.27,-726.09"
         style="fill:#ffffff;fill-opacity:1;fill-rule:nonzero;stroke:none"
         id="path14" />
      <path
         d="m 6236.68,3078.46 c 66.29,0 124.28,10.96 172.34,32.6 l 5.63,2.52 -20.9,65.64 -7,-3.53 c -38.54,-19.45 -84.76,-29.3 -137.4,-29.3 -50.04,0 -87.74,20.59 -115.27,62.98 -21.87,33.34 -32.97,73.1 -32.97,118.2 0,49.12 10.14,90.28 30.16,122.37 26.85,43.61 68.03,64.81 125.88,64.81 46.3,0 89.04,-8.24 127.06,-24.49 l 6.34,-2.71 24.53,62.96 -6.18,2.63 c -46.13,19.59 -97.84,29.54 -153.71,29.54 -73.86,0 -132.33,-25.05 -173.81,-74.5 -37.29,-45.1 -56.2,-105.2 -56.2,-178.61 0,-74.08 19.41,-135.02 57.67,-181.13 38.54,-46.44 90.29,-69.98 153.83,-69.98"
         style="fill:#ffffff;fill-opacity:1;fill-rule:nonzero;stroke:none"
         id="path16" />
      <path
         d="m 6544.68,3509.43 c 15.59,1.54 34.93,2.31 57.58,2.31 76.77,0 114.11,-24.88 114.11,-76.1 0,-51.89 -33.82,-77.11 -103.39,-77.11 h -68.3 z m 0,-216.83 h 71.22 c 58.8,0 97.21,-67.66 114.18,-201.09 l 0.76,-6.05 h 75.2 l -1.15,7.97 c -10.43,72.27 -22.56,125.37 -36.04,157.81 -12.06,28.97 -28.64,52.18 -49.35,69.17 46.38,25.53 69.87,65.59 69.87,119.23 0,43.52 -17.35,78.42 -51.56,103.71 -33.52,24.77 -79.14,37.32 -135.55,37.32 -37.24,0 -79.97,-4.4 -126.97,-13.11 l -5.56,-1.03 v -481.07 h 74.95 v 207.14"
         style="fill:#ffffff;fill-opacity:1;fill-rule:nonzero;stroke:none"
         id="path18" />
      <path
         d="m 7144.22,3153.4 h -214.47 v 156.21 h 191.07 v 67.94 h -191.07 v 130.18 h 214.47 v 67.94 h -289.44 v -490.21 h 289.44 v 67.94"
         style="fill:#ffffff;fill-opacity:1;fill-rule:nonzero;stroke:none"
         id="path20" />
      <path
         d="m 7278.74,3507.39 c 35.51,3.56 62.08,5.35 79.01,5.35 105.66,0 157.02,-56.31 157.02,-172.16 0,-50.47 -10.16,-92.65 -30.14,-125.35 -27.53,-44.31 -70.63,-65.83 -131.76,-65.83 -29.11,0 -54.01,0.82 -74.13,2.43 z m 62.44,-425.93 c 88.18,0 154.56,27.46 197.34,81.66 34.61,44.42 52.17,104.13 52.17,177.46 0,68.69 -16.25,124.03 -48.3,164.47 -39.52,50.18 -100.66,75.62 -181.72,75.62 -26.07,0 -76.83,-4.38 -150.89,-13.05 l -6,-0.7 v -474.75 l 6.04,-0.67 c 60.48,-6.67 104.67,-10.04 131.36,-10.04"
         style="fill:#ffffff;fill-opacity:1;fill-rule:nonzero;stroke:none"
         id="path22" />
      <path
         d="m 7726.21,3575.67 h -74.96 v -490.21 h 74.96 v 490.21"
         style="fill:#ffffff;fill-opacity:1;fill-rule:nonzero;stroke:none"
         id="path24" />
      <path
         d="m 7936.88,3085.46 h 74.96 v 422.27 h 169.62 v 67.94 H 7765.3 v -67.94 h 171.58 v -422.27"
         style="fill:#ffffff;fill-opacity:1;fill-rule:nonzero;stroke:none"
         id="path26" />
      <path
         d="m 8628.98,3078.46 c 66.29,0 124.28,10.96 172.35,32.6 l 5.62,2.52 -20.9,65.64 -7,-3.53 c -38.53,-19.45 -84.75,-29.3 -137.39,-29.3 -50.05,0 -87.74,20.59 -115.27,62.98 -21.88,33.34 -32.97,73.1 -32.97,118.2 0,49.12 10.13,90.28 30.15,122.37 26.86,43.61 68.03,64.81 125.88,64.81 46.3,0 89.06,-8.24 127.06,-24.49 l 6.34,-2.71 24.53,62.96 -6.18,2.63 c -46.12,19.59 -97.83,29.54 -153.7,29.54 -73.87,0 -132.33,-25.05 -173.81,-74.5 -37.29,-45.1 -56.2,-105.2 -56.2,-178.61 0,-74.08 19.4,-135.02 57.67,-181.13 38.54,-46.44 90.29,-69.98 153.82,-69.98"
         style="fill:#ffffff;fill-opacity:1;fill-rule:nonzero;stroke:none"
         id="path28" />
      <path
         d="m 9040.19,3483.35 58.85,-170.85 h -121.05 z m -89.75,-238.78 h 176.96 l 61.43,-159.11 h 81.97 l -199.58,497.22 h -61.69 l -200.59,-497.22 h 81.05 l 60.45,159.11"
         style="fill:#ffffff;fill-opacity:1;fill-rule:nonzero;stroke:none"
         id="path30" />
      <path
         d="m 9376.64,3509.43 c 15.6,1.54 34.93,2.31 57.57,2.31 76.79,0 114.11,-24.88 114.11,-76.1 0,-51.89 -33.82,-77.11 -103.39,-77.11 h -68.29 z m 0,-216.83 h 71.22 c 58.8,0 97.21,-67.66 114.17,-201.09 l 0.77,-6.05 h 75.21 l -1.16,7.97 c -10.42,72.27 -22.56,125.37 -36.05,157.81 -12.05,28.97 -28.62,52.18 -49.35,69.17 46.38,25.53 69.88,65.59 69.88,119.23 0,43.52 -17.35,78.42 -51.56,103.71 -33.53,24.77 -79.14,37.32 -135.56,37.32 -37.24,0 -79.95,-4.4 -126.96,-13.11 l -5.57,-1.03 v -481.07 h 74.96 v 207.14"
         style="fill:#ffffff;fill-opacity:1;fill-rule:nonzero;stroke:none"
         id="path32" />
      <path
         d="m 9761.71,3507.39 c 35.52,3.56 62.09,5.35 79.02,5.35 105.65,0 157,-56.31 157,-172.16 0,-50.47 -10.14,-92.65 -30.12,-125.35 -27.53,-44.31 -70.63,-65.83 -131.76,-65.83 -29.11,0 -54.01,0.82 -74.14,2.43 z m 62.44,-425.93 c 88.18,0 154.57,27.46 197.35,81.66 34.6,44.42 52.2,104.13 52.2,177.46 0,68.69 -16.3,124.03 -48.3,164.47 -39.56,50.18 -100.7,75.62 -181.75,75.62 -26.07,0 -76.84,-4.38 -150.9,-13.05 l -6,-0.7 v -474.75 l 6.05,-0.67 c 60.47,-6.67 104.67,-10.04 131.35,-10.04"
         style="fill:#ffffff;fill-opacity:1;fill-rule:nonzero;stroke:none"
         id="path34" />
      <path
         d="m 1858.14,5449.82 277.79,1885.03 828.67,-125.68 c 187.86,235.9 475.09,387.15 796.61,387.15 h 5122.14 l -6562.22,995.21 60.26,408.92 c 39.71,269.48 288.14,455.94 553.77,415.65 l 6125.09,-928.91 c 184.33,-27.95 311.87,-202.82 284.31,-389.8 l -73.84,-501.07 h 402.05 l 65.05,441.43 c 59.98,406.96 -217.61,787.55 -618.77,848.39 l -6125.09,928.91 c -482.5,73.17 -933.7,-265.49 -1005.84,-754.95 L 1464.88,5509.46 c -72.13,-489.45 261.71,-947.18 744.2,-1020.36 l 528.21,-80.11 v 407.87 l -469.42,71.19 c -265.63,40.28 -449.44,292.28 -409.73,561.77"
         style="fill:#ffffff;fill-opacity:1;fill-rule:nonzero;stroke:none"
         id="path36" />
    </g>
  </g>
</svg>
