<svg width="39" height="39" viewBox="0 0 39 39" fill="none" xmlns="http://www.w3.org/2000/svg">
<path d="M7.72918 7.42377L6.61182 24.0059L37.2895 26.073L38.4069 9.49096L7.72918 7.42377Z" fill="#35A83F"/>
<path d="M37.3176 12.9252C36.0629 12.5299 35.1176 11.47 34.8655 10.181L11.1353 8.58252C10.7113 9.82575 9.63997 10.7481 8.33945 10.9716L7.7207 20.2185C9.08997 20.6481 10.0868 21.8685 10.2186 23.3179L33.7999 24.9049C34.1264 23.4898 35.278 22.4185 36.6931 22.1721L37.3176 12.9252Z" fill="#02873E"/>
<path d="M29.0144 17.1887C29.2567 13.593 26.5383 10.4817 22.9426 10.2395C19.347 9.99717 16.2357 12.7156 15.9934 16.3113C15.7511 19.9069 18.4695 23.0182 22.0652 23.2605C25.6609 23.5028 28.7721 20.7843 29.0144 17.1887Z" fill="#35A83F"/>
<path d="M21.8546 21.3758L21.9291 20.3102C21.1786 20.2243 20.4682 19.9779 20.0557 19.7029L20.4796 18.4138C20.9322 18.7003 21.5796 18.981 22.3072 19.0326C22.9432 19.0784 23.4015 18.8607 23.4301 18.4081C23.4588 17.9841 23.1208 17.692 22.3072 17.3539C21.1385 16.8727 20.3593 16.2539 20.4281 15.1711C20.4968 14.1857 21.2416 13.4581 22.4562 13.3034L22.5307 12.2378L23.6307 12.3123L23.5619 13.2977C24.3124 13.3836 24.8051 13.5727 25.1604 13.7789L24.7478 15.0222C24.4671 14.8789 23.9687 14.5868 23.1609 14.5352C22.4333 14.4836 22.1755 14.7815 22.1583 15.0966C22.1354 15.4633 22.5077 15.7269 23.4359 16.1508C24.7364 16.7123 25.2348 17.3654 25.1661 18.368C25.0973 19.3649 24.3354 20.167 23.0348 20.3045L22.9604 21.4446L21.8546 21.3758Z" fill="#02873E"/>
<path d="M31.1043 0.398039L0.595703 4.22314L2.66327 20.7138L33.1719 16.8887L31.1043 0.398039Z" fill="#39B54A"/>
<path d="M30.6889 3.97634C29.3827 3.82738 28.254 2.968 27.7613 1.75342L4.16289 4.70967C3.98529 6.01019 3.10872 7.12165 1.87695 7.59144L3.02852 16.781C4.45508 16.9414 5.66393 17.9498 6.07643 19.342L29.5259 16.4029C29.5775 14.9534 30.4999 13.6758 31.8462 13.1659L30.6889 3.97634Z" fill="#009245"/>
<path d="M17.6924 17.0276C21.2682 16.5793 23.8036 13.317 23.3553 9.74121C22.9069 6.16537 19.6447 3.63003 16.0689 4.07836C12.493 4.52669 9.95768 7.78892 10.406 11.3648C10.8543 14.9406 14.1166 17.4759 17.6924 17.0276Z" fill="#39B54A"/>
<path d="M17.1222 15.2169L16.9904 14.157C16.2399 14.2143 15.4894 14.1054 15.0368 13.9163L15.2086 12.57C15.7071 12.7648 16.3946 12.9195 17.1164 12.8278C17.7524 12.7476 18.1534 12.4497 18.0961 12.0028C18.0446 11.5788 17.655 11.3554 16.7956 11.1835C15.5524 10.9314 14.6701 10.4788 14.5383 9.39603C14.418 8.41634 15.0081 7.5627 16.1711 7.17884L16.0394 6.11894L17.1279 5.98145L17.2482 6.96113C17.9987 6.90384 18.5201 6.99551 18.9097 7.12728L18.7435 8.4278C18.4399 8.34186 17.8956 8.14707 17.0935 8.2502C16.3716 8.34186 16.1769 8.67988 16.2112 8.99499C16.2571 9.36165 16.6753 9.54499 17.6664 9.78561C19.0529 10.0893 19.6602 10.6335 19.7862 11.6361C19.9123 12.6273 19.3164 13.5611 18.0618 13.945L18.205 15.0794L17.1222 15.2169Z" fill="#009245"/>
<path d="M17.8221 36.1293C20.6037 34.9012 21.8631 31.6506 20.6349 28.8689C19.4068 26.0872 16.1562 24.8279 13.3745 26.056C10.5929 27.2842 9.3335 30.5348 10.5617 33.3164C11.7898 36.0981 15.0404 37.3575 17.8221 36.1293Z" fill="#FFED6C"/>
<path d="M17.2716 34.8816C19.3643 33.9576 20.3118 31.512 19.3878 29.4193C18.4638 27.3265 16.0183 26.3791 13.9255 27.303C11.8327 28.227 10.8853 30.6726 11.8093 32.7653C12.7332 34.8581 15.1788 35.8056 17.2716 34.8816Z" fill="#FFD345"/>
<path d="M12.2697 33.0806C11.3473 30.9894 12.2926 28.5431 14.3838 27.6207C15.6557 27.0592 17.0536 27.191 18.1593 27.8498C16.9963 26.9332 15.3749 26.6696 13.9255 27.3113C11.8343 28.2337 10.889 30.68 11.8114 32.7712C12.1723 33.5905 12.7739 34.2321 13.49 34.6618C12.9801 34.2493 12.5562 33.7165 12.2697 33.0806Z" fill="#FBB03B"/>
<path d="M16.7038 33.7853L16.4574 33.2239C16.0507 33.3786 15.621 33.4473 15.3403 33.413L15.2142 32.6395C15.5236 32.6682 15.9304 32.6338 16.3142 32.4676C16.6522 32.3187 16.8241 32.0838 16.721 31.8489C16.6236 31.6255 16.3715 31.5682 15.8673 31.6083C15.1397 31.677 14.5783 31.5682 14.3205 30.9952C14.0913 30.4739 14.2746 29.901 14.8533 29.4999L14.6069 28.9385L15.1856 28.6807L15.4147 29.202C15.8215 29.0473 16.1252 29.0072 16.3601 29.0187L16.4861 29.7635C16.3028 29.7692 15.9705 29.752 15.5465 29.9411C15.1627 30.113 15.1111 30.3307 15.1856 30.4968C15.2715 30.6916 15.5351 30.726 16.1194 30.6916C16.933 30.6286 17.3627 30.8291 17.5975 31.3619C17.8324 31.889 17.6548 32.502 17.0246 32.926L17.2939 33.5275L16.7038 33.7853Z" fill="#FBB03B"/>
<path d="M16.3547 33.6535L16.1083 33.0921C15.7016 33.2467 15.2719 33.3155 14.9911 33.2811L14.8651 32.5077C15.1745 32.5363 15.5812 32.502 15.9651 32.3358C16.3031 32.1868 16.475 31.952 16.3719 31.7171C16.2745 31.4936 16.0224 31.4363 15.5182 31.4764C14.7906 31.5452 14.2292 31.4363 13.9713 30.8634C13.7422 30.3421 13.9255 29.7691 14.5042 29.3681L14.2578 28.8066L14.8365 28.5488L15.0656 29.0702C15.4724 28.9155 15.776 28.8754 16.0109 28.8868L16.137 29.6316C15.9536 29.6374 15.6213 29.6202 15.1974 29.8092C14.8135 29.9811 14.762 30.1988 14.8365 30.365C14.9224 30.5598 15.1859 30.5941 15.7703 30.5598C16.5838 30.4967 17.0135 30.6973 17.2484 31.2301C17.4833 31.7572 17.3057 32.3702 16.6755 32.7941L16.9448 33.3957L16.3547 33.6535Z" fill="#FFED6C"/>
<path d="M27.767 29.7751C30.8077 29.7751 33.2727 27.3101 33.2727 24.2694C33.2727 21.2287 30.8077 18.7637 27.767 18.7637C24.7262 18.7637 22.2612 21.2287 22.2612 24.2694C22.2612 27.3101 24.7262 29.7751 27.767 29.7751Z" fill="#FFED6C"/>
<path d="M27.7672 28.4118C30.0549 28.4118 31.9094 26.5573 31.9094 24.2696C31.9094 21.982 30.0549 20.1274 27.7672 20.1274C25.4795 20.1274 23.625 21.982 23.625 24.2696C23.625 26.5573 25.4795 28.4118 27.7672 28.4118Z" fill="#FFD345"/>
<path d="M23.9226 24.7394C23.9226 22.4535 25.7788 20.5972 28.0647 20.5972C29.4512 20.5972 30.6772 21.2847 31.4278 22.3332C30.7345 21.0212 29.3538 20.1274 27.7726 20.1274C25.4866 20.1274 23.6304 21.9837 23.6304 24.2696C23.6304 25.1691 23.9168 25.9998 24.4038 26.6759C24.0944 26.103 23.9226 25.4441 23.9226 24.7394Z" fill="#FBB03B"/>
<path d="M27.6869 27.1799V26.5669C27.2515 26.5497 26.8333 26.4294 26.5869 26.2861L26.7817 25.5299C27.051 25.6788 27.4348 25.8163 27.8588 25.8163C28.2255 25.8163 28.4775 25.6731 28.4775 25.4153C28.4775 25.1689 28.2713 25.0143 27.79 24.8538C27.0968 24.6189 26.627 24.2981 26.627 23.6679C26.627 23.1007 27.0281 22.6538 27.7213 22.5163V21.9033H28.3572V22.4705C28.7926 22.4877 29.0848 22.5794 29.2968 22.6825L29.1077 23.4158C28.9416 23.3471 28.6437 23.1981 28.1739 23.1981C27.7557 23.1981 27.6182 23.3814 27.6182 23.559C27.6182 23.771 27.8473 23.9085 28.3973 24.1148C29.165 24.384 29.4801 24.745 29.4801 25.3236C29.4801 25.9023 29.0734 26.3893 28.3286 26.521V27.1799H27.6869Z" fill="#FBB03B"/>
<path d="M27.4232 26.9162V26.3032C26.9878 26.286 26.5696 26.1657 26.3232 26.0225L26.518 25.2662C26.7873 25.4152 27.1712 25.5527 27.5951 25.5527C27.9618 25.5527 28.2139 25.4094 28.2139 25.1516C28.2139 24.9053 28.0076 24.7506 27.5264 24.5902C26.8331 24.3553 26.3633 24.0344 26.3633 23.4042C26.3633 22.837 26.7644 22.3902 27.4576 22.2527V21.6396H28.0936V22.2068C28.529 22.224 28.8212 22.3157 29.0331 22.4188L28.8441 23.1521C28.6779 23.0834 28.38 22.9344 27.9102 22.9344C27.492 22.9344 27.3545 23.1178 27.3545 23.2954C27.3545 23.5074 27.5837 23.6449 28.1337 23.8511C28.9014 24.1204 29.2165 24.4813 29.2165 25.06C29.2165 25.6386 28.8097 26.1256 28.0649 26.2574V26.9162H27.4232Z" fill="#FFED6C"/>
</svg>
