<svg width="25" height="25" viewBox="0 0 25 25" fill="none" xmlns="http://www.w3.org/2000/svg">
<g clip-path="url(#clip0_299_233)">
<path fill-rule="evenodd" clip-rule="evenodd" d="M10.0245 6.14052L18.2862 12.1394C18.3432 12.1805 18.3897 12.2346 18.4217 12.2972C18.4538 12.3597 18.4705 12.429 18.4705 12.4993C18.4705 12.5696 18.4538 12.6389 18.4217 12.7015C18.3897 12.7641 18.3432 12.8182 18.2862 12.8593L10.0245 18.8582C9.73149 19.0702 9.31855 18.8637 9.31855 18.4982V6.50046C9.31815 6.4183 9.34058 6.33765 9.38333 6.26749C9.42608 6.19733 9.48747 6.14042 9.56066 6.1031C9.63385 6.06578 9.71597 6.04952 9.79786 6.05612C9.87975 6.06273 9.9582 6.09195 10.0245 6.14052ZM11.0987 9.12043V15.8782L15.7499 12.4993L11.0987 9.12043Z" fill="white"/>
<path fill-rule="evenodd" clip-rule="evenodd" d="M0 12.5C0 5.5971 5.5971 0 12.5 0C19.4029 0 25 5.5971 25 12.5C25 19.4029 19.4029 25 12.5 25C5.5971 25 0 19.4029 0 12.5ZM2.12054 12.5C2.12054 18.231 6.76897 22.8795 12.5 22.8795C18.231 22.8795 22.8795 18.231 22.8795 12.5C22.8795 6.76897 18.231 2.12054 12.5 2.12054C6.76897 2.12054 2.12054 6.76897 2.12054 12.5Z" fill="white"/>
</g>
<defs>
<clipPath id="clip0_299_233">
<rect width="25" height="25" fill="white"/>
</clipPath>
</defs>
</svg>
