<svg width="25" height="25" viewBox="0 0 25 25" fill="none" xmlns="http://www.w3.org/2000/svg">
<path d="M22.1672 19.5166C21.6408 18.2699 20.877 17.1374 19.9183 16.1823C18.9625 15.2245 17.8302 14.4608 16.584 13.9335C16.5729 13.9279 16.5617 13.9251 16.5505 13.9195C18.2888 12.6639 19.4188 10.6187 19.4188 8.31125C19.4188 4.4887 16.3217 1.3916 12.4992 1.3916C8.67665 1.3916 5.57956 4.4887 5.57956 8.31125C5.57956 10.6187 6.70958 12.6639 8.44786 13.9223C8.4367 13.9279 8.42554 13.9307 8.41438 13.9362C7.16438 14.4636 6.04272 15.2197 5.08011 16.1851C4.12227 17.141 3.35859 18.2732 2.83123 19.5194C2.31315 20.7394 2.03375 22.0474 2.00813 23.3726C2.00738 23.4024 2.0126 23.432 2.02349 23.4598C2.03437 23.4875 2.0507 23.5128 2.0715 23.5341C2.0923 23.5554 2.11716 23.5724 2.14461 23.5839C2.17206 23.5955 2.20155 23.6014 2.23134 23.6014H3.90545C4.02822 23.6014 4.12587 23.5038 4.12866 23.3838C4.18447 21.2298 5.04942 19.2125 6.57844 17.6835C8.16047 16.1014 10.2615 15.2309 12.4992 15.2309C14.7369 15.2309 16.8379 16.1014 18.42 17.6835C19.949 19.2125 20.8139 21.2298 20.8697 23.3838C20.8725 23.5066 20.9702 23.6014 21.0929 23.6014H22.7671C22.7968 23.6014 22.8263 23.5955 22.8538 23.5839C22.8812 23.5724 22.9061 23.5554 22.9269 23.5341C22.9477 23.5128 22.964 23.4875 22.9749 23.4598C22.9858 23.432 22.991 23.4024 22.9903 23.3726C22.9624 22.0389 22.6861 20.7415 22.1672 19.5166ZM12.4992 13.1104C11.2185 13.1104 10.0131 12.6109 9.10634 11.7041C8.19953 10.7973 7.70009 9.59194 7.70009 8.31125C7.70009 7.03055 8.19953 5.8252 9.10634 4.91839C10.0131 4.01158 11.2185 3.51214 12.4992 3.51214C13.7799 3.51214 14.9852 4.01158 15.8921 4.91839C16.7989 5.8252 17.2983 7.03055 17.2983 8.31125C17.2983 9.59194 16.7989 10.7973 15.8921 11.7041C14.9852 12.6109 13.7799 13.1104 12.4992 13.1104Z" fill="white"/>
</svg>
