<svg width="59" height="61" viewBox="0 0 59 61" fill="none" xmlns="http://www.w3.org/2000/svg">
<path d="M58.2222 4.88042C57.96 4.3233 57.3348 4.02332 56.7475 4.19474C54.7434 4.73673 52.5981 5.0115 50.3646 5.0115C44.7834 5.0115 39.3811 3.31243 35.0333 1.94864C32.237 1.06381 29.8169 0.312589 27.8355 0.123523C27.0717 0.0529384 26.2675 0 25.4407 0C19.6704 0 15.5387 2.63432 12.8539 7.93068C11.6969 11.0238 11.6313 13.8497 12.7909 16.3126C14.3312 19.5872 17.6159 21.5157 19.4486 22.0123C20.1191 22.1963 20.5149 22.8921 20.3334 23.5601C20.1796 24.1197 19.6729 24.4903 19.1183 24.4903C19.0099 24.4903 18.8965 24.4752 18.7856 24.4449C16.8218 23.908 12.564 21.7476 10.5095 17.384C9.86419 16.0126 9.51127 14.5631 9.42304 13.0581C3.34268 18.0016 0 26.1944 0 36.5426C0 42.6274 2.96959 48.6781 8.14747 53.1546C13.5573 57.8283 20.8552 60.4021 28.7002 60.4021C32.0076 60.4021 35.4038 59.9427 38.7938 59.0484C39.3358 58.9047 39.7196 58.4238 39.7341 57.856C39.8374 53.5882 34.9375 48.9094 32.5949 47.2305C32.5496 46.6261 32.6655 45.5516 32.91 44.4928C23.3005 42.819 14.9387 38.0526 12.7203 32.7065C12.4531 32.0656 12.7582 31.3295 13.4035 31.0629C14.0438 30.8032 14.7824 31.1026 15.0496 31.746C17.0714 36.6208 25.839 41.1357 35.332 42.306C38.2972 42.3589 41.4905 43.516 41.9997 44.1135C42.2978 44.4588 42.7641 44.6201 43.2154 44.5269C43.6666 44.4336 44.0271 44.1034 44.1607 43.6647C44.2584 43.3547 44.3775 42.8429 44.4809 42.2656C40.7525 36.1752 35.7662 36.7323 32.4487 37.1098C31.4076 37.2283 30.5883 37.3216 29.8825 37.2239C29.1943 37.1256 28.7153 36.4853 28.8111 35.8021C28.9094 35.1133 29.5371 34.6242 30.2348 34.7276C30.6211 34.7805 31.3673 34.6923 32.1639 34.6091C35.3729 34.2411 41.0903 33.6058 45.5377 39.361C51.4063 37.4905 51.0881 31.9319 50.9671 29.9682L50.9526 29.6632C50.9268 29.1943 50.6425 28.7758 50.214 28.5792C49.026 28.0372 46.0696 25.6701 44.3807 23.3786C43.0994 23.7467 41.6172 23.9483 40.1248 23.9483C37.314 23.9483 34.5058 23.2652 33.1394 21.8283C32.663 21.3216 32.6806 20.5225 33.1899 20.046C33.6991 19.5696 34.4957 19.5872 34.9721 20.0964C36.2174 21.4123 40.5357 21.7905 43.4694 21.0216C43.3106 15.9647 38.335 11.8506 29.3953 9.55412C29.723 9.10541 30.3911 8.82559 31.8286 8.82559C33.1388 8.82559 34.7673 9.06507 36.658 9.33228C39.1316 9.69025 41.9392 10.0911 44.9145 10.0911C49.9562 10.0911 54.1661 8.89617 57.7835 6.44588C58.2984 6.10304 58.4793 5.44005 58.2222 4.88042Z" fill="url(#paint0_linear_10_179)"/>
<defs>
<linearGradient id="paint0_linear_10_179" x1="0" y1="0" x2="58.3382" y2="0" gradientUnits="userSpaceOnUse">
<stop stop-color="#FFFFFF"/>
<stop offset="1" stop-color="#FFFFFF"/>
</linearGradient>
</defs>
</svg>
