<svg width="269" height="80" viewBox="0 0 269 80" fill="none" xmlns="http://www.w3.org/2000/svg">
<path d="M71.3345 14.7144C71.0723 14.1572 70.4471 13.8573 69.8598 14.0287C67.8557 14.5707 65.7104 14.8454 63.4769 14.8454C57.8957 14.8454 52.4934 13.1464 48.1456 11.7826C45.3493 10.8978 42.9292 10.1465 40.9478 9.95751C40.184 9.88692 39.3798 9.83398 38.553 9.83398C32.7827 9.83398 28.651 12.4683 25.9663 17.7646C24.8092 20.8577 24.7436 23.6836 25.9032 26.1465C27.4435 29.4212 30.7282 31.3496 32.5609 31.8462C33.2314 32.0303 33.6272 32.726 33.4457 33.3941C33.2919 33.9537 32.7852 34.3243 32.2306 34.3243C32.1222 34.3243 32.0088 34.3091 31.8979 34.2789C29.9341 33.7419 25.6764 31.5815 23.6218 27.2179C22.9765 25.8466 22.6236 24.397 22.5353 22.8921C16.455 27.8355 13.1123 36.0284 13.1123 46.3766C13.1123 52.4613 16.0819 58.5121 21.2598 62.9885C26.6696 67.6622 33.9675 70.236 41.8125 70.236C45.1199 70.236 48.5161 69.7766 51.9061 68.8823C52.4481 68.7386 52.8319 68.2578 52.8464 67.69C52.9497 63.4221 48.0498 58.7434 45.7072 57.0645C45.6619 56.4601 45.7778 55.3856 46.0224 54.3268C36.4128 52.6529 28.051 47.8866 25.8326 42.5404C25.5654 41.8995 25.8705 41.1634 26.5158 40.8968C27.1561 40.6372 27.8947 40.9365 28.1619 41.58C30.1837 46.4547 38.9513 50.9696 48.4443 52.1399C51.4095 52.1929 54.6028 53.3499 55.112 53.9474C55.4101 54.2928 55.8765 54.4541 56.3277 54.3608C56.7789 54.2675 57.1394 53.9373 57.273 53.4987C57.3707 53.1886 57.4898 52.6769 57.5932 52.0996C53.8648 46.0092 48.8785 46.5663 45.561 46.9438C44.5199 47.0623 43.7006 47.1555 42.9948 47.0578C42.3066 46.9595 41.8276 46.3192 41.9234 45.6361C42.0217 44.9472 42.6494 44.4582 43.3471 44.5615C43.7334 44.6145 44.4796 44.5262 45.2762 44.4431C48.4852 44.075 54.2026 43.4397 58.65 49.1949C64.5186 47.3244 64.2004 41.7659 64.0794 39.8021L64.0649 39.4971C64.0391 39.0282 63.7548 38.6098 63.3263 38.4131C62.1383 37.8711 59.182 35.504 57.493 33.2126C56.2117 33.5806 54.7295 33.7823 53.2371 33.7823C50.4263 33.7823 47.6181 33.0991 46.2517 31.6622C45.7753 31.1555 45.793 30.3564 46.3022 29.88C46.8114 29.4035 47.608 29.4212 48.0844 29.9304C49.3297 31.2463 53.648 31.6244 56.5817 30.8555C56.4229 25.7987 51.4473 21.6846 42.5076 19.3881C42.8353 18.9394 43.5034 18.6595 44.9409 18.6595C46.2511 18.6595 47.8796 18.899 49.7703 19.1662C52.2439 19.5242 55.0515 19.925 58.0268 19.925C63.0685 19.925 67.2784 18.7301 70.8958 16.2798C71.4107 15.937 71.5916 15.274 71.3345 14.7144Z" fill="url(#paint0_linear_112_4749)"/>
<path d="M96.6734 36.3187V40.0306C95.179 40.4403 93.6847 40.609 92.1421 40.609C87.6107 40.609 84.5737 37.4998 84.5737 33.0889C84.5737 28.5576 87.7312 25.5688 92.118 25.5688C93.6365 25.5688 95.2273 25.6893 96.6734 26.1473V29.8591C95.4924 29.2806 93.6365 29.0637 92.3349 29.0637C89.3943 29.0637 88.1892 30.2689 88.1892 33.0648C88.1892 36.0295 89.6113 37.1141 92.359 37.1141C93.5883 37.1141 95.5888 36.9213 96.6734 36.3187ZM107.177 37.2105C109.804 37.2105 111.154 35.5233 111.154 33.0648C111.154 30.4617 109.708 28.9191 107.177 28.9191C104.526 28.9191 103.2 30.6063 103.2 33.0648C103.2 35.6197 104.67 37.2105 107.177 37.2105ZM107.177 40.5608C102.646 40.5608 99.5845 37.4757 99.5845 33.0648C99.5845 28.5093 102.79 25.5688 107.177 25.5688C111.732 25.5688 114.769 28.6299 114.769 33.0648C114.769 37.6444 111.588 40.5608 107.177 40.5608ZM118.428 25.6893H122.043V40.4403H118.428V25.6893ZM135.608 25.6893H139.223V40.4403H135.608L129.823 31.8115V40.4403H126.207V25.6893H129.823L135.608 34.3182V25.6893ZM152.571 37.4516H147.148L146.087 40.4403H142.158L148.063 25.6893H151.679L157.584 40.4403H153.631L152.571 37.4516ZM148.329 34.1012H151.39L149.871 29.8109L148.329 34.1012ZM171.438 36.3187V40.0306C169.944 40.4403 168.449 40.609 166.907 40.609C162.375 40.609 159.338 37.4998 159.338 33.0889C159.338 28.5576 162.496 25.5688 166.882 25.5688C168.401 25.5688 169.992 25.6893 171.438 26.1473V29.8591C170.257 29.2806 168.401 29.0637 167.099 29.0637C164.159 29.0637 162.954 30.2689 162.954 33.0648C162.954 36.0295 164.376 37.1141 167.123 37.1141C168.353 37.1141 170.353 36.9213 171.438 36.3187ZM184.111 37.4516H178.688L177.627 40.4403H173.698L179.603 25.6893H183.219L189.124 40.4403H185.171L184.111 37.4516ZM179.869 34.1012H182.93L181.411 29.8109L179.869 34.1012ZM197.217 40.4403H192.035V25.6893H197.217C201.725 25.6893 204.81 28.6299 204.81 33.0648C204.81 37.6203 201.556 40.4403 197.217 40.4403ZM195.651 29.0396V37.09H197.217C199.772 37.09 201.194 35.4751 201.194 33.0648C201.194 32.5104 201.122 32.0043 200.977 31.4981C200.351 29.7386 198.977 29.0396 197.217 29.0396H195.651ZM208.492 25.6893H219.459V29.0396H212.108V31.4017H218.013V34.752H212.108V37.09H219.459V40.4403H208.492V25.6893ZM226.564 32.3176V40.4403H222.948V25.6893H226.564L231.168 33.8361L235.771 25.6893H239.387V40.4403H235.771V32.3176L232.975 37.1141H229.36L226.564 32.3176ZM247.528 40.4403V34.9689C244.612 34.3182 242.924 31.9079 242.924 29.0155V25.6893H246.54V29.0155C246.54 30.7509 247.576 31.8115 249.312 31.8115C251.095 31.8115 252.084 30.775 252.084 29.0155V25.6893H255.699V29.0155C255.699 31.9561 253.988 34.2941 251.144 34.9689V40.4403H247.528Z" fill="white"/>
<path d="M113.652 47.3562V48.3299H112.445V54.628H111.471V48.3299H110.143V47.3562H113.652ZM116.84 47.3765H117.804V54.6077H116.84V50.7842H115.978V54.6077H115.015V47.3765H115.978V49.8308H116.84V47.3765ZM121.702 50.7943H120.303V53.6543H121.712V54.6178H119.339V47.3765H121.712V48.34H120.303V49.8308H121.702V50.7943ZM127.268 53.0965V54.6077H126.305V47.3765H127.806C128.475 47.3765 129.013 47.9242 129.013 48.5935V51.8896C129.013 52.559 128.475 53.0965 127.806 53.0965H127.268ZM127.268 48.34V52.1331H127.806C127.948 52.1331 128.049 52.0316 128.049 51.8896V48.5935C128.049 48.4516 127.948 48.34 127.806 48.34H127.268ZM131.917 54.628C131.157 54.628 130.548 54.0093 130.548 53.2588V48.7051C130.548 47.9546 131.157 47.3461 131.917 47.3461C132.668 47.3461 133.276 47.9546 133.276 48.7051V53.2588C133.276 54.0093 132.668 54.628 131.917 54.628ZM131.917 48.3096C131.694 48.3096 131.522 48.4921 131.522 48.7051V53.2588C131.522 53.4819 131.694 53.6543 131.917 53.6543C132.13 53.6543 132.313 53.4819 132.313 53.2588V48.7051C132.313 48.4921 132.13 48.3096 131.917 48.3096ZM138.625 47.3765H139.599L138.655 54.6178H137.651L137.144 50.987L136.668 54.6178H135.664L134.649 47.3765H135.623L136.15 51.1087L136.637 47.3765H137.611L138.138 51.1087L138.625 47.3765ZM143.497 50.7943H142.098V53.6543H143.507V54.6178H141.134V47.3765H143.507V48.34H142.098V49.8308H143.497V50.7943ZM147.822 54.6381H146.787L146.229 53.1067H146.006V54.6381H145.043V47.3765H146.554C147.223 47.3765 147.761 47.914 147.761 48.5834V51.8998C147.761 52.3359 147.538 52.7111 147.193 52.9241L147.822 54.6381ZM146.006 48.34V52.1432H146.554C146.686 52.1432 146.797 52.0316 146.797 51.8998V48.5834C146.797 48.4516 146.686 48.34 146.554 48.34H146.006ZM153.783 54.628C153.022 54.628 152.414 54.0093 152.414 53.2588V48.7051C152.414 47.9546 153.022 47.3461 153.783 47.3461C154.534 47.3461 155.142 47.9546 155.142 48.7051V53.2588C155.142 54.0093 154.534 54.628 153.783 54.628ZM153.783 48.3096C153.56 48.3096 153.388 48.4921 153.388 48.7051V53.2588C153.388 53.4819 153.56 53.6543 153.783 53.6543C153.996 53.6543 154.179 53.4819 154.179 53.2588V48.7051C154.179 48.4921 153.996 48.3096 153.783 48.3096ZM159.061 49.8613V50.8146H157.631V54.5975H156.678V47.3765H159.041V48.34H157.631V49.8613H159.061ZM165.012 54.5975C164.262 54.5975 163.653 53.989 163.653 53.2385V48.7355C163.653 47.985 164.262 47.3765 165.012 47.3765C165.763 47.3765 166.371 47.985 166.371 48.7355V49.1412H165.408V48.7355C165.408 48.5225 165.225 48.34 165.012 48.34C164.799 48.34 164.617 48.5225 164.617 48.7355V53.2385C164.617 53.4515 164.799 53.634 165.012 53.634C165.225 53.634 165.408 53.4515 165.408 53.2385V52.5894H166.371V53.2385C166.371 53.989 165.763 54.5975 165.012 54.5975ZM170.685 54.6381H169.651L169.093 53.1067H168.87V54.6381H167.907V47.3765H169.418C170.087 47.3765 170.625 47.914 170.625 48.5834V51.8998C170.625 52.3359 170.402 52.7111 170.057 52.9241L170.685 54.6381ZM168.87 48.34V52.1432H169.418C169.55 52.1432 169.661 52.0316 169.661 51.8998V48.5834C169.661 48.4516 169.55 48.34 169.418 48.34H168.87ZM175.497 47.3765L174.138 51.7781V54.6178H173.154V51.7679L171.907 47.3765H172.921L173.661 49.983L174.472 47.3765H175.497ZM177.996 53.0965V54.6077H177.032V47.3765H178.533C179.203 47.3765 179.74 47.9242 179.74 48.5935V51.8896C179.74 52.559 179.203 53.0965 178.533 53.0965H177.996ZM177.996 48.34V52.1331H178.533C178.675 52.1331 178.777 52.0316 178.777 51.8896V48.5935C178.777 48.4516 178.675 48.34 178.533 48.34H177.996ZM184.785 47.3562V48.3299H183.578V54.628H182.604V48.3299H181.276V47.3562H184.785ZM187.395 54.628C186.635 54.628 186.026 54.0093 186.026 53.2588V48.7051C186.026 47.9546 186.635 47.3461 187.395 47.3461C188.146 47.3461 188.754 47.9546 188.754 48.7051V53.2588C188.754 54.0093 188.146 54.628 187.395 54.628ZM187.395 48.3096C187.172 48.3096 187 48.4921 187 48.7051V53.2588C187 53.4819 187.172 53.6543 187.395 53.6543C187.608 53.6543 187.791 53.4819 187.791 53.2588V48.7051C187.791 48.4921 187.608 48.3096 187.395 48.3096ZM191.649 54.5975C190.898 54.5975 190.29 53.989 190.29 53.2385V48.7355C190.29 47.985 190.898 47.3765 191.649 47.3765C192.399 47.3765 193.008 47.985 193.008 48.7355V49.1412H192.044V48.7355C192.044 48.5225 191.862 48.34 191.649 48.34C191.436 48.34 191.253 48.5225 191.253 48.7355V53.2385C191.253 53.4515 191.436 53.634 191.649 53.634C191.862 53.634 192.044 53.4515 192.044 53.2385V52.5894H193.008V53.2385C193.008 53.989 192.399 54.5975 191.649 54.5975ZM196.034 54.6381C195.213 54.6381 194.543 53.9687 194.543 53.1472V47.3867H195.507V53.1472C195.507 53.4414 195.74 53.6848 196.034 53.6848C196.328 53.6848 196.561 53.4414 196.561 53.1472V47.3867H197.525V53.1472C197.525 53.9687 196.856 54.6381 196.034 54.6381ZM201.839 54.6381H200.805L200.247 53.1067H200.024V54.6381H199.06V47.3765H200.572C201.241 47.3765 201.778 47.914 201.778 48.5834V51.8998C201.778 52.3359 201.555 52.7111 201.211 52.9241L201.839 54.6381ZM200.024 48.34V52.1432H200.572C200.703 52.1432 200.815 52.0316 200.815 51.8998V48.5834C200.815 48.4516 200.703 48.34 200.572 48.34H200.024ZM206.154 54.6381H205.119L204.561 53.1067H204.338V54.6381H203.375V47.3765H204.886C205.555 47.3765 206.093 47.914 206.093 48.5834V51.8998C206.093 52.3359 205.87 52.7111 205.525 52.9241L206.154 54.6381ZM204.338 48.34V52.1432H204.886C205.018 52.1432 205.129 52.0316 205.129 51.8998V48.5834C205.129 48.4516 205.018 48.34 204.886 48.34H204.338ZM210.052 50.7943H208.653V53.6543H210.062V54.6178H207.689V47.3765H210.062V48.34H208.653V49.8308H210.052V50.7943ZM213.951 52.9545L213.991 47.3359H214.965L214.904 54.6584H213.393L212.571 48.9891V54.6584H211.598V47.3359H213.17L213.951 52.9545ZM217.859 54.5975C217.109 54.5975 216.5 53.989 216.5 53.2385V48.7355C216.5 47.985 217.109 47.3765 217.859 47.3765C218.61 47.3765 219.218 47.985 219.218 48.7355V49.1412H218.255V48.7355C218.255 48.5225 218.072 48.34 217.859 48.34C217.646 48.34 217.464 48.5225 217.464 48.7355V53.2385C217.464 53.4515 217.646 53.634 217.859 53.634C218.072 53.634 218.255 53.4515 218.255 53.2385V52.5894H219.218V53.2385C219.218 53.989 218.61 54.5975 217.859 54.5975ZM221.717 47.3562V54.5772H220.754V47.3562H221.717ZM225.616 50.7943H224.216V53.6543H225.626V54.6178H223.253V47.3765H225.626V48.34H224.216V49.8308H225.616V50.7943ZM228.551 54.6787C227.78 54.6787 227.162 54.0499 227.162 53.2892V52.1838H228.145V53.2892C228.145 53.5123 228.328 53.6949 228.551 53.6949C228.774 53.6949 228.946 53.5123 228.946 53.2892V52.3257L227.162 49.8613V48.6037C227.162 47.8329 227.78 47.2041 228.551 47.2041C229.312 47.2041 229.93 47.8329 229.93 48.6037V49.699H228.946V48.6037C228.946 48.3704 228.774 48.198 228.551 48.198C228.328 48.198 228.145 48.3704 228.145 48.6037V49.5266L229.93 51.9911V53.2892C229.93 54.0499 229.312 54.6787 228.551 54.6787Z" fill="white"/>
<defs>
<linearGradient id="paint0_linear_112_4749" x1="13.1123" y1="39.8481" x2="71.4505" y2="39.8481" gradientUnits="userSpaceOnUse">
<stop stop-color="#FF461E"/>
<stop offset="1" stop-color="#7D141D"/>
</linearGradient>
</defs>
</svg>
