<svg width="33" height="33" viewBox="0 0 33 33" fill="none" xmlns="http://www.w3.org/2000/svg">
<g clip-path="url(#clip0_137_665)">
<path d="M31.2651 4.02832C30.6193 4.40332 29.9474 4.72624 29.2495 4.99707C28.5516 5.2679 27.8276 5.47624 27.0776 5.62207C26.4943 4.99707 25.786 4.49707 24.9526 4.12207C24.1193 3.74707 23.2339 3.55957 22.2964 3.55957C21.3797 3.55957 20.5256 3.73665 19.7339 4.09082C18.9422 4.42415 18.2495 4.8877 17.6558 5.48145C17.062 6.0752 16.5881 6.7679 16.2339 7.55957C15.9006 8.37207 15.7339 9.22624 15.7339 10.1221C15.7339 10.3721 15.7495 10.6221 15.7808 10.8721C15.812 11.1221 15.8485 11.3721 15.8901 11.6221C14.536 11.5596 13.2235 11.3512 11.9526 10.9971C10.661 10.6429 9.44222 10.1689 8.29639 9.5752C7.15055 8.98145 6.07764 8.27832 5.07764 7.46582C4.07764 6.65332 3.17139 5.74707 2.35889 4.74707C2.08805 5.24707 1.87451 5.77311 1.71826 6.3252C1.56201 6.87728 1.48389 7.4554 1.48389 8.05957C1.48389 9.2054 1.74951 10.2575 2.28076 11.2158C2.81201 12.1742 3.51514 12.945 4.39014 13.5283C3.84847 13.5075 3.32764 13.4242 2.82764 13.2783C2.32764 13.1325 1.85889 12.9346 1.42139 12.6846C1.42139 12.7054 1.42139 12.721 1.42139 12.7314C1.42139 12.7419 1.42139 12.7575 1.42139 12.7783C1.42139 14.3617 1.9266 15.7575 2.93701 16.9658C3.94743 18.1742 5.20264 18.9242 6.70264 19.2158C6.41097 19.2992 6.12451 19.3564 5.84326 19.3877C5.56201 19.4189 5.26514 19.4346 4.95264 19.4346C4.7443 19.4346 4.53597 19.4294 4.32764 19.4189C4.1193 19.4085 3.92139 19.3825 3.73389 19.3408C4.15055 20.6325 4.91618 21.7054 6.03076 22.5596C7.14535 23.4137 8.42139 23.8617 9.85889 23.9033C8.73389 24.7783 7.47868 25.4658 6.09326 25.9658C4.70785 26.4658 3.2443 26.7158 1.70264 26.7158C1.4318 26.7158 1.16618 26.7054 0.905762 26.6846C0.645345 26.6637 0.390137 26.6429 0.140137 26.6221C0.869303 27.0804 1.62972 27.4867 2.42139 27.8408C3.21305 28.2158 4.03076 28.5283 4.87451 28.7783C5.71826 29.0283 6.58805 29.2262 7.48389 29.3721C8.35889 29.4971 9.26514 29.5596 10.2026 29.5596C13.2235 29.5596 15.8901 28.9971 18.2026 27.8721C20.536 26.7262 22.4943 25.2575 24.0776 23.4658C25.661 21.6742 26.8589 19.6742 27.6714 17.4658C28.4839 15.2367 28.8901 13.0387 28.8901 10.8721C28.8901 10.7262 28.8849 10.5856 28.8745 10.4502C28.8641 10.3148 28.8589 10.1742 28.8589 10.0283C29.5047 9.56999 30.1037 9.05436 30.6558 8.48145C31.2078 7.90853 31.7026 7.28874 32.1401 6.62207C31.5568 6.8929 30.9474 7.11686 30.312 7.29395C29.6766 7.47103 29.0256 7.60124 28.3589 7.68457C29.0464 7.2679 29.6401 6.74707 30.1401 6.12207C30.6401 5.49707 31.0151 4.79915 31.2651 4.02832Z" fill="#BEBBB6"/>
</g>
<defs>
<clipPath id="clip0_137_665">
<rect width="32" height="32" fill="white" transform="matrix(1 0 0 -1 0.140137 32.5596)"/>
</clipPath>
</defs>
</svg>
