<svg width="33" height="33" viewBox="0 0 33 33" fill="none" xmlns="http://www.w3.org/2000/svg">
<g clip-path="url(#clip0_137_667)">
<path d="M0.140137 16.4346C0.140137 17.3721 0.31722 18.2471 0.671387 19.0596C1.02555 19.8512 1.49951 20.5492 2.09326 21.1533C2.68701 21.7575 3.39014 22.2367 4.20264 22.5908C5.01514 22.945 5.87972 23.1221 6.79639 23.1221C7.71305 23.1221 8.57764 22.945 9.39014 22.5908C10.2026 22.2367 10.911 21.7575 11.5151 21.1533C12.1193 20.5492 12.5985 19.8512 12.9526 19.0596C13.3068 18.2471 13.4839 17.3721 13.4839 16.4346C13.4839 15.5179 13.3068 14.6533 12.9526 13.8408C12.5985 13.0492 12.1193 12.3512 11.5151 11.7471C10.911 11.1429 10.2026 10.6637 9.39014 10.3096C8.57764 9.9554 7.71305 9.77832 6.79639 9.77832C5.87972 9.77832 5.01514 9.9554 4.20264 10.3096C3.39014 10.6637 2.68701 11.1429 2.09326 11.7471C1.49951 12.3512 1.02555 13.0492 0.671387 13.8408C0.31722 14.6533 0.140137 15.5179 0.140137 16.4346ZM18.7964 16.4346C18.7964 17.3721 18.9735 18.2471 19.3276 19.0596C19.6818 19.8512 20.161 20.5492 20.7651 21.1533C21.3693 21.7575 22.0776 22.2367 22.8901 22.5908C23.7026 22.945 24.5672 23.1221 25.4839 23.1221C26.4006 23.1221 27.2651 22.945 28.0776 22.5908C28.8901 22.2367 29.5933 21.7575 30.187 21.1533C30.7808 20.5492 31.2547 19.8512 31.6089 19.0596C31.9631 18.2471 32.1401 17.3721 32.1401 16.4346C32.1401 15.5179 31.9631 14.6533 31.6089 13.8408C31.2547 13.0492 30.7808 12.3512 30.187 11.7471C29.5933 11.1429 28.8901 10.6637 28.0776 10.3096C27.2651 9.9554 26.4006 9.77832 25.4839 9.77832C24.5672 9.77832 23.7026 9.9554 22.8901 10.3096C22.0776 10.6637 21.3693 11.1429 20.7651 11.7471C20.161 12.3512 19.6818 13.0492 19.3276 13.8408C18.9735 14.6533 18.7964 15.5179 18.7964 16.4346Z" fill="#BEBBB6"/>
</g>
<defs>
<clipPath id="clip0_137_667">
<rect width="32" height="32" fill="white" transform="matrix(1 0 0 -1 0.140137 32.5596)"/>
</clipPath>
</defs>
</svg>
