<svg width="16" height="13" viewBox="0 0 16 13" fill="none" xmlns="http://www.w3.org/2000/svg">
<g filter="url(#filter0_d_137_669)">
<path d="M2.55576 3.02832C2.58701 2.84082 2.49326 2.65332 2.36826 2.52832L0.962011 0.84082V0.55957H5.33701L8.71201 7.99707L11.712 0.55957H15.8683V0.84082L14.6808 1.99707C14.587 2.05957 14.5245 2.18457 14.5558 2.30957V10.8096C14.5245 10.9346 14.587 11.0908 14.6808 11.1533L15.8683 12.3096V12.5596H9.93076V12.3096L11.1495 11.1221C11.2745 10.9971 11.2745 10.9658 11.2745 10.7783V3.93457L7.86826 12.5596H7.39951L3.46201 3.93457V9.71582C3.43076 9.93457 3.49326 10.1846 3.68076 10.3721L5.27451 12.2783V12.5283H0.774511V12.2783L2.36826 10.3721C2.52451 10.1846 2.58701 9.93457 2.55576 9.71582V3.02832Z" fill="#BEBBB6"/>
</g>
<defs>
<filter id="filter0_d_137_669" x="0.774414" y="0.55957" width="15.0938" height="12" filterUnits="userSpaceOnUse" color-interpolation-filters="sRGB">
<feFlood flood-opacity="0" result="BackgroundImageFix"/>
<feColorMatrix in="SourceAlpha" type="matrix" values="0 0 0 0 0 0 0 0 0 0 0 0 0 0 0 0 0 0 127 0" result="hardAlpha"/>
<feOffset/>
<feComposite in2="hardAlpha" operator="out"/>
<feColorMatrix type="matrix" values="0 0 0 0 0.745098 0 0 0 0 0.733333 0 0 0 0 0.713726 0 0 0 1 0"/>
<feBlend mode="normal" in2="BackgroundImageFix" result="effect1_dropShadow_137_669"/>
<feBlend mode="normal" in="SourceGraphic" in2="effect1_dropShadow_137_669" result="shape"/>
</filter>
</defs>
</svg>
