<svg width="14" height="14" viewBox="0 0 14 14" fill="none" xmlns="http://www.w3.org/2000/svg">
<path d="M6.9935 0.333496C3.3135 0.333496 0.333496 3.32016 0.333496 7.00016C0.333496 10.6802 3.3135 13.6668 6.9935 13.6668C10.6802 13.6668 13.6668 10.6802 13.6668 7.00016C13.6668 3.32016 10.6802 0.333496 6.9935 0.333496ZM11.6135 4.3335H9.64683C9.43818 3.5078 9.12921 2.71076 8.72683 1.96016C9.94291 2.37883 10.9676 3.22131 11.6135 4.3335ZM7.00016 1.6935C7.5535 2.4935 7.98683 3.38016 8.2735 4.3335H5.72683C6.0135 3.38016 6.44683 2.4935 7.00016 1.6935ZM1.84016 8.3335C1.7335 7.90683 1.66683 7.46016 1.66683 7.00016C1.66683 6.54016 1.7335 6.0935 1.84016 5.66683H4.0935C4.04016 6.10683 4.00016 6.54683 4.00016 7.00016C4.00016 7.4535 4.04016 7.8935 4.0935 8.3335H1.84016ZM2.38683 9.66683H4.3535C4.56683 10.5002 4.8735 11.3002 5.2735 12.0402C4.05614 11.6238 3.03072 10.7807 2.38683 9.66683ZM4.3535 4.3335H2.38683C3.03072 3.21961 4.05614 2.37654 5.2735 1.96016C4.87111 2.71076 4.56215 3.5078 4.3535 4.3335ZM7.00016 12.3068C6.44683 11.5068 6.0135 10.6202 5.72683 9.66683H8.2735C7.98683 10.6202 7.5535 11.5068 7.00016 12.3068ZM8.56016 8.3335H5.44016C5.38016 7.8935 5.3335 7.4535 5.3335 7.00016C5.3335 6.54683 5.38016 6.10016 5.44016 5.66683H8.56016C8.62016 6.10016 8.66683 6.54683 8.66683 7.00016C8.66683 7.4535 8.62016 7.8935 8.56016 8.3335ZM8.72683 12.0402C9.12683 11.3002 9.4335 10.5002 9.64683 9.66683H11.6135C10.9676 10.779 9.94291 11.6215 8.72683 12.0402ZM9.90683 8.3335C9.96016 7.8935 10.0002 7.4535 10.0002 7.00016C10.0002 6.54683 9.96016 6.10683 9.90683 5.66683H12.1602C12.2668 6.0935 12.3335 6.54016 12.3335 7.00016C12.3335 7.46016 12.2668 7.90683 12.1602 8.3335H9.90683Z" fill="white"/>
</svg>
