<svg width="18" height="20" viewBox="0 0 18 20" fill="none" xmlns="http://www.w3.org/2000/svg">
<path d="M9.78883 2.28543V1.5777H10.3583C10.7939 1.5777 11.1471 1.22449 11.1471 0.788867C11.1471 0.353242 10.7939 0 10.3583 0H7.64172C7.20606 0 6.85289 0.353203 6.85289 0.788828C6.85289 1.22445 7.20609 1.57766 7.64172 1.57766H8.21117V2.28539C3.68566 2.68594 0.125 6.49715 0.125 11.125C0.125 16.0187 4.10633 20 9.00004 20C13.8938 20 17.8751 16.0187 17.8751 11.125C17.875 6.49715 14.3143 2.68594 9.78883 2.28543ZM9.78883 18.3795V17.5934C9.78883 17.1578 9.43563 16.8046 9 16.8046C8.56434 16.8046 8.21117 17.1578 8.21117 17.5934V18.3795C4.81625 18.0129 2.11207 15.3087 1.74547 11.9138H2.53156C2.96723 11.9138 3.32039 11.5606 3.32039 11.125C3.32039 10.6894 2.96719 10.3362 2.53156 10.3362H1.74543C2.11203 6.94125 4.81629 4.23707 8.21113 3.87043V4.65652C8.21113 5.09219 8.56434 5.44535 8.99996 5.44535C9.43563 5.44535 9.78879 5.09215 9.78879 4.65652V3.87035C13.1837 4.23695 15.8879 6.94121 16.2545 10.3361H15.4684C15.0327 10.3361 14.6796 10.6893 14.6796 11.1249C14.6796 11.5605 15.0328 11.9137 15.4684 11.9137H16.2546C15.888 15.3087 13.1838 18.013 9.78883 18.3795Z" fill="url(#paint0_linear_136_364)"/>
<path d="M11.3925 7.61681L9.11987 9.88947C9.08038 9.88568 9.04042 9.88357 8.99991 9.88357C8.31429 9.88357 7.75854 10.4394 7.75854 11.1249C7.75854 11.8106 8.31433 12.3663 8.99991 12.3663C9.6855 12.3663 10.2413 11.8105 10.2413 11.1249C10.2413 11.0844 10.2392 11.0445 10.2354 11.005L12.508 8.73236C12.816 8.42435 12.816 7.92486 12.508 7.61677C12.2001 7.30873 11.7006 7.30873 11.3925 7.61681Z" fill="url(#paint1_linear_136_364)"/>
<defs>
<linearGradient id="paint0_linear_136_364" x1="0.125" y1="9.9381" x2="17.8751" y2="9.9381" gradientUnits="userSpaceOnUse">
<stop stop-color="#FF461E"/>
<stop offset="1" stop-color="#7D141D"/>
</linearGradient>
<linearGradient id="paint1_linear_136_364" x1="7.75854" y1="9.86061" x2="12.739" y2="9.86061" gradientUnits="userSpaceOnUse">
<stop stop-color="#FF461E"/>
<stop offset="1" stop-color="#7D141D"/>
</linearGradient>
</defs>
</svg>
