<svg width="20" height="20" viewBox="0 0 20 20" fill="none" xmlns="http://www.w3.org/2000/svg">
<g clip-path="url(#clip0_136_368)">
<path d="M17.8322 6.31813L18.1537 5.7875C18.1537 5.7875 18.4369 5.31813 18.4369 4.68781C18.4369 3.16094 16.98 3.20125 16.98 3.20125L13.8059 2.33719L12.0744 0.625L9.79594 1.24531L9.04875 1.04188L8.48094 1.60344L5.20062 2.49656C5.20062 2.49656 3.93813 2.46188 3.93813 3.785C3.93813 4.33125 4.18375 4.73812 4.18375 4.73812L4.60594 5.435L4.235 5.80125L2.40375 6.3C2.40375 6.3 0.946875 6.25969 0.946875 7.78656C0.949789 8.1423 1.033 8.49279 1.19031 8.81188L0.625 9.37094L0.921562 9.48844C0.928125 9.50438 0.930625 9.52219 0.943438 9.535C1.51688 10.1097 1.46969 10.8816 1.38781 11.2984L1.04125 11.6456L3.66656 12.9078L7.27219 18.8594C7.85 19.7675 9.07656 19.1994 9.07656 19.1994L18.3419 14.7444L17.9953 14.3972C17.9134 13.9803 17.8662 13.2084 18.4397 12.6334C18.4525 12.6206 18.455 12.6028 18.4616 12.5872L18.7581 12.4694L17.0353 10.7662L19.0134 9.81531L18.7131 9.51437C18.6422 9.15312 18.6012 8.48406 19.0984 7.98594C19.1094 7.97469 19.1112 7.95969 19.1172 7.94563L19.375 7.84344L17.8322 6.31813ZM16.0556 3.55719L15.665 4.17531L14.6544 3.17594L16.0556 3.55719ZM12.2425 2.2325L13.6934 3.78344L8.44688 5.67937L7.20781 3.75562L12.2425 2.2325ZM4.92 5.95375L8.50031 11.8634L1.67938 9.15781L4.92 5.95375ZM3.42781 6.59969L3.0075 7.01531L2.83938 6.7575L3.42781 6.59969ZM2.10063 6.92281L2.49187 7.525L1.64406 8.36312C1.57735 8.17814 1.54238 7.9832 1.54062 7.78656C1.54062 7.21594 1.82375 6.99875 2.10063 6.92281ZM1.61062 11.5706L1.61531 11.5525L9.47375 14.9922L1.67688 11.2753C1.68406 11.2331 1.68969 11.1866 1.69563 11.1397L7.79969 13.6959L1.71687 10.8472C1.71843 10.717 1.70944 10.5869 1.69 10.4581L7.33969 12.7847L1.61406 10.125C1.57731 10.0019 1.5281 9.88282 1.46719 9.76969L9.24312 13.09L9.42 13.3819C9.78469 13.955 10.4462 13.8491 10.7797 13.7497C11.2406 13.9772 12.0669 14.5034 11.8553 15.2787C11.7437 15.6887 11.4984 15.8875 11.1056 15.8875C10.7078 15.8875 10.3106 15.6794 10.3066 15.6766L1.61062 11.5706ZM9.4375 15.6828L8.82312 15.9372L8.30125 15.1363L9.4375 15.6828ZM7.05813 17.3644L4.64281 13.3772L7.04344 14.5312L8.17875 16.2787C7.72094 16.4744 7.20937 16.9209 7.05813 17.3644ZM17.6934 13.5569C17.674 13.6856 17.665 13.8157 17.6666 13.9459L11.5837 16.7947L17.6878 14.2384C17.6938 14.285 17.6991 14.3319 17.7066 14.3741L9.90969 18.0912L17.7681 14.6516C17.7699 14.6576 17.7714 14.6636 17.7728 14.6697L9.07687 18.775C9.07281 18.7778 8.67625 18.9859 8.27781 18.9859C7.88469 18.9859 7.63969 18.7869 7.52812 18.3772C7.24125 17.325 8.8725 16.7284 8.89687 16.7194L10.3266 16.1094C10.48 16.1747 11.5747 16.6044 12.1112 15.7609L12.4497 15.2028L17.9166 12.8684C17.8557 12.9816 17.8064 13.1007 17.7694 13.2238L12.0438 15.8834L17.6934 13.5569ZM17.7041 12.2566L13.0712 14.1766L14.3569 12.0544L16.4716 11.0378L17.7041 12.2566ZM18.4519 8.78563C18.4353 8.89723 18.4274 9.00998 18.4284 9.12281L13.1572 11.5916L18.4472 9.37625C18.4525 9.41656 18.4569 9.4575 18.4634 9.49375L11.7059 12.715L18.5166 9.73406C18.5182 9.73919 18.5196 9.74441 18.5206 9.74969L10.9841 13.3081C10.9806 13.3103 10.6366 13.4909 10.2916 13.4909C9.95062 13.4909 9.73844 13.3181 9.64188 12.9631C9.39312 12.0512 10.8069 11.5344 10.8281 11.5266L18.645 8.18906C18.5923 8.2872 18.5497 8.39044 18.5178 8.49719L13.5553 10.8022L18.4519 8.78563Z" fill="url(#paint0_linear_136_368)"/>
</g>
<defs>
<linearGradient id="paint0_linear_136_368" x1="0.625" y1="9.94191" x2="19.375" y2="9.94191" gradientUnits="userSpaceOnUse">
<stop stop-color="#FF461E"/>
<stop offset="1" stop-color="#7D141D"/>
</linearGradient>
<clipPath id="clip0_136_368">
<rect width="20" height="20" fill="white"/>
</clipPath>
</defs>
</svg>
