<svg width="20" height="20" viewBox="0 0 20 20" fill="none" xmlns="http://www.w3.org/2000/svg">
<path fill-rule="evenodd" clip-rule="evenodd" d="M11.875 8.75751C10.145 8.75751 8.74312 7.355 8.74312 5.625C8.74312 3.895 10.145 2.49313 11.875 2.49313C13.605 2.49313 15.0069 3.895 15.0069 5.625C15.0069 7.355 13.605 8.75751 11.875 8.75751ZM3.75 8.75C2.36937 8.75 1.25 7.63063 1.25 6.25C1.25 4.86937 2.36937 3.75 3.75 3.75C5.13063 3.75 6.25 4.86937 6.25 6.25C6.25 7.63063 5.13063 8.75 3.75 8.75ZM18.75 8.75L15 11.25C15 10.4913 14.655 9.82 14.1212 9.36188C15.3912 8.59563 16.25 7.21625 16.25 5.625C16.25 3.20875 14.2913 1.25 11.875 1.25C9.45875 1.25 7.5 3.20875 7.5 5.625C7.5 6.85125 8.00749 7.95563 8.81937 8.75H6.52687C7.125 8.08563 7.5 7.215 7.5 6.25C7.5 4.17937 5.82062 2.5 3.75 2.5C1.67938 2.5 0 4.17937 0 6.25C0 7.38062 0.51 8.38124 1.30125 9.06937C0.529375 9.49437 0 10.3062 0 11.25V16.25C0 17.6306 1.11937 18.75 2.5 18.75H12.5C13.8806 18.75 15 17.6306 15 16.25L18.75 18.75C19.44 18.75 20 18.19 20 17.5V10C20 9.31 19.44 8.75 18.75 8.75Z" fill="url(#paint0_linear_136_371)"/>
<defs>
<linearGradient id="paint0_linear_136_371" x1="0" y1="9.94584" x2="20" y2="9.94584" gradientUnits="userSpaceOnUse">
<stop stop-color="#FF461E"/>
<stop offset="1" stop-color="#7D141D"/>
</linearGradient>
</defs>
</svg>
