<svg width="14" height="12" viewBox="0 0 14 12" fill="none" xmlns="http://www.w3.org/2000/svg">
<path d="M7.91592 11.1708L7.30889 11.7778C7.05186 12.0348 6.63623 12.0348 6.38193 11.7778L1.06631 6.46489C0.809277 6.20786 0.809277 5.79224 1.06631 5.53794L6.38193 0.222314C6.63896 -0.0347168 7.05459 -0.0347168 7.30889 0.222314L7.91592 0.829346C8.17568 1.08911 8.17021 1.51294 7.90498 1.76724L4.61006 4.9063H12.4687C12.8323 4.9063 13.1249 5.19888 13.1249 5.56255V6.43755C13.1249 6.80122 12.8323 7.0938 12.4687 7.0938H4.61006L7.90498 10.2329C8.17295 10.4872 8.17842 10.911 7.91592 11.1708Z" fill="#ff6109"/>
</svg>
