<svg width="14" height="15" viewBox="0 0 14 15" fill="none" xmlns="http://www.w3.org/2000/svg">
<g clip-path="url(#clip0_13_416)">
<path d="M7 7.5C8.9332 7.5 10.5 5.9332 10.5 4C10.5 2.0668 8.9332 0.5 7 0.5C5.0668 0.5 3.5 2.0668 3.5 4C3.5 5.9332 5.0668 7.5 7 7.5ZM9.45 8.375H8.99336C8.38633 8.65391 7.71094 8.8125 7 8.8125C6.28906 8.8125 5.61641 8.65391 5.00664 8.375H4.55C2.52109 8.375 0.875 10.0211 0.875 12.05V13.1875C0.875 13.9121 1.46289 14.5 2.1875 14.5H11.8125C12.5371 14.5 13.125 13.9121 13.125 13.1875V12.05C13.125 10.0211 11.4789 8.375 9.45 8.375Z" fill="#A8A8B3"/>
</g>
<defs>
<clipPath id="clip0_13_416">
<rect width="14" height="14" fill="white" transform="translate(0 0.5)"/>
</clipPath>
</defs>
</svg>
